<mxfile host="app.diagrams.net" modified="2020-06-03T20:09:14.392Z" agent="5.0 (Windows NT 10.0; Win64; x64) AppleWebKit/537.36 (KHTML, like Gecko) Chrome/83.0.4103.61 Safari/537.36" etag="wx6u8MgMANqLwXMFPgGP" version="13.1.12" type="github">
  <diagram id="TxC2RvV53c9lngaPghdg" name="Page-1">
    <mxGraphModel dx="7545" dy="3071" grid="1" gridSize="10" guides="1" tooltips="1" connect="1" arrows="1" fold="1" page="1" pageScale="1" pageWidth="827" pageHeight="1169" math="0" shadow="0">
      <root>
        <mxCell id="0" />
        <mxCell id="1" parent="0" />
        <mxCell id="1ylVQQ3sh8P-H1glT6XM-3" value="" style="edgeStyle=orthogonalEdgeStyle;rounded=0;orthogonalLoop=1;jettySize=auto;html=1;" parent="1" source="1ylVQQ3sh8P-H1glT6XM-1" target="1ylVQQ3sh8P-H1glT6XM-2" edge="1">
          <mxGeometry relative="1" as="geometry" />
        </mxCell>
        <mxCell id="1ylVQQ3sh8P-H1glT6XM-1" value="&lt;!--StartFragment--&gt;&lt;div style=&quot;color: rgb(171, 178, 191); background-color: rgb(40, 44, 52); font-family: Consolas, &amp;quot;Courier New&amp;quot;, monospace; font-weight: normal; font-size: 16px; line-height: 22px;&quot;&gt;&lt;div&gt;&lt;span style=&quot;color: #c678dd;&quot;&gt;if&lt;/span&gt;&lt;span style=&quot;color: #abb2bf;&quot;&gt;&amp;nbsp;((&lt;/span&gt;&lt;span style=&quot;color: #56b6c2;&quot;&gt;sizeof&lt;/span&gt;&lt;span style=&quot;color: #abb2bf;&quot;&gt;(&lt;/span&gt;&lt;span style=&quot;color: #e06c75;&quot;&gt;$aplicar&lt;/span&gt;&lt;span style=&quot;color: #abb2bf;&quot;&gt;)&lt;/span&gt;&lt;span style=&quot;color: #56b6c2;&quot;&gt;&amp;gt;&lt;/span&gt;&lt;span style=&quot;color: #d19a66;&quot;&gt;0&lt;/span&gt;&lt;span style=&quot;color: #abb2bf;&quot;&gt;)&amp;nbsp;&lt;/span&gt;&lt;span style=&quot;color: #56b6c2;&quot;&gt;and&lt;/span&gt;&lt;span style=&quot;color: #abb2bf;&quot;&gt;&amp;nbsp;(&lt;/span&gt;&lt;span style=&quot;color: #e06c75;&quot;&gt;$aplicar&lt;/span&gt;&lt;span style=&quot;color: #abb2bf;&quot;&gt;[&lt;/span&gt;&lt;span style=&quot;color: #d19a66;&quot;&gt;0&lt;/span&gt;&lt;span style=&quot;color: #abb2bf;&quot;&gt;]&lt;/span&gt;&lt;span style=&quot;color: #56b6c2;&quot;&gt;&amp;lt;&amp;gt;&lt;/span&gt;&lt;span style=&quot;color: #98c379;&quot;&gt;&quot;&quot;&lt;/span&gt;&lt;span style=&quot;color: #abb2bf;&quot;&gt;))&amp;nbsp;{&lt;/span&gt;&lt;/div&gt;&lt;/div&gt;&lt;!--EndFragment--&gt;" style="text;whiteSpace=wrap;html=1;fillColor=#f8cecc;strokeColor=#b85450;" parent="1" vertex="1">
          <mxGeometry x="120" y="180" width="480" height="40" as="geometry" />
        </mxCell>
        <mxCell id="1ylVQQ3sh8P-H1glT6XM-2" value="&lt;div style=&quot;color: rgb(171 , 178 , 191) ; background-color: rgb(40 , 44 , 52) ; font-family: &amp;#34;consolas&amp;#34; , &amp;#34;courier new&amp;#34; , monospace ; font-weight: normal ; font-size: 16px ; line-height: 22px&quot;&gt;&lt;div&gt;&lt;div style=&quot;color: rgb(171 , 178 , 191) ; background-color: rgb(40 , 44 , 52) ; font-family: &amp;#34;consolas&amp;#34; , &amp;#34;courier new&amp;#34; , monospace ; font-weight: normal ; font-size: 16px ; line-height: 22px&quot;&gt;&lt;div&gt;&lt;span style=&quot;color: #e06c75&quot;&gt;$aplica&lt;/span&gt;&lt;span style=&quot;color: #56b6c2&quot;&gt;=&lt;/span&gt;&lt;span style=&quot;color: #98c379&quot;&gt;&quot;si&quot;&lt;/span&gt;&lt;span style=&quot;color: #abb2bf&quot;&gt;;&lt;/span&gt;&lt;/div&gt;&lt;/div&gt;&lt;/div&gt;&lt;/div&gt;" style="text;whiteSpace=wrap;html=1;" parent="1" vertex="1">
          <mxGeometry x="140" y="260" width="120" height="40" as="geometry" />
        </mxCell>
        <mxCell id="1ylVQQ3sh8P-H1glT6XM-7" value="" style="edgeStyle=orthogonalEdgeStyle;rounded=0;orthogonalLoop=1;jettySize=auto;html=1;" parent="1" source="1ylVQQ3sh8P-H1glT6XM-4" target="1ylVQQ3sh8P-H1glT6XM-6" edge="1">
          <mxGeometry relative="1" as="geometry" />
        </mxCell>
        <mxCell id="1ylVQQ3sh8P-H1glT6XM-4" value="&lt;!--StartFragment--&gt;&lt;div style=&quot;color: rgb(171, 178, 191); background-color: rgb(40, 44, 52); font-family: Consolas, &amp;quot;Courier New&amp;quot;, monospace; font-weight: normal; font-size: 16px; line-height: 22px;&quot;&gt;&lt;div&gt;&lt;span style=&quot;color: #61afef;&quot;&gt;db_query&lt;/span&gt;&lt;span style=&quot;color: #abb2bf;&quot;&gt;(&lt;/span&gt;&lt;span style=&quot;color: #98c379;&quot;&gt;&quot;select&amp;nbsp;*&amp;nbsp;from&amp;nbsp;reglas&amp;nbsp;where&amp;nbsp;eidregla=&quot;&lt;/span&gt;&lt;span style=&quot;color: #abb2bf;&quot;&gt;.&lt;/span&gt;&lt;span style=&quot;color: #e06c75;&quot;&gt;$idregla&lt;/span&gt;&lt;span style=&quot;color: #abb2bf;&quot;&gt;.&lt;/span&gt;&lt;span style=&quot;color: #98c379;&quot;&gt;&quot;&amp;nbsp;and&amp;nbsp;idEmpresa&amp;nbsp;=&amp;nbsp;&#39;&quot;&lt;/span&gt;&lt;span style=&quot;color: #abb2bf;&quot;&gt;.&lt;/span&gt;&lt;span style=&quot;color: #e06c75;&quot;&gt;$_SESSION&lt;/span&gt;&lt;span style=&quot;color: #abb2bf;&quot;&gt;[&lt;/span&gt;&lt;span style=&quot;color: #98c379;&quot;&gt;&#39;sess_userData&#39;&lt;/span&gt;&lt;span style=&quot;color: #abb2bf;&quot;&gt;][&lt;/span&gt;&lt;span style=&quot;color: #98c379;&quot;&gt;&#39;empresa&#39;&lt;/span&gt;&lt;span style=&quot;color: #abb2bf;&quot;&gt;][&lt;/span&gt;&lt;span style=&quot;color: #98c379;&quot;&gt;&#39;idEmpresa&#39;&lt;/span&gt;&lt;span style=&quot;color: #abb2bf;&quot;&gt;]&lt;/span&gt;&lt;span style=&quot;color: #abb2bf;&quot;&gt;.&lt;/span&gt;&lt;span style=&quot;color: #98c379;&quot;&gt;&quot;&#39;&quot;&lt;/span&gt;&lt;span style=&quot;color: #abb2bf;&quot;&gt;);&lt;/span&gt;&lt;/div&gt;&lt;/div&gt;&lt;!--EndFragment--&gt;" style="text;whiteSpace=wrap;html=1;" parent="1" vertex="1">
          <mxGeometry x="110" y="310" width="550" height="60" as="geometry" />
        </mxCell>
        <mxCell id="1ylVQQ3sh8P-H1glT6XM-11" value="" style="edgeStyle=orthogonalEdgeStyle;rounded=0;orthogonalLoop=1;jettySize=auto;html=1;" parent="1" source="1ylVQQ3sh8P-H1glT6XM-6" target="1ylVQQ3sh8P-H1glT6XM-10" edge="1">
          <mxGeometry relative="1" as="geometry" />
        </mxCell>
        <mxCell id="1ylVQQ3sh8P-H1glT6XM-6" value="&lt;div style=&quot;color: rgb(171 , 178 , 191) ; background-color: rgb(40 , 44 , 52) ; font-family: &amp;#34;consolas&amp;#34; , &amp;#34;courier new&amp;#34; , monospace ; font-weight: normal ; font-size: 16px ; line-height: 22px&quot;&gt;&lt;div&gt;&lt;div style=&quot;color: rgb(171 , 178 , 191) ; background-color: rgb(40 , 44 , 52) ; font-family: &amp;#34;consolas&amp;#34; , &amp;#34;courier new&amp;#34; , monospace ; font-weight: normal ; font-size: 16px ; line-height: 22px&quot;&gt;&lt;div&gt;&lt;span style=&quot;color: #e06c75&quot;&gt;$masbajo&lt;/span&gt;&lt;span style=&quot;color: #56b6c2&quot;&gt;=&lt;/span&gt;&lt;span style=&quot;color: #e06c75&quot;&gt;$row&lt;/span&gt;&lt;span style=&quot;color: #abb2bf&quot;&gt;[&lt;/span&gt;&lt;span style=&quot;color: #98c379&quot;&gt;&quot;orden&quot;&lt;/span&gt;&lt;span style=&quot;color: #abb2bf&quot;&gt;];&lt;/span&gt;&lt;/div&gt;&lt;div&gt;&lt;span style=&quot;color: #abb2bf&quot;&gt;&lt;/span&gt;&lt;span style=&quot;color: #e06c75&quot;&gt;$miregla&lt;/span&gt;&lt;span style=&quot;color: #56b6c2&quot;&gt;=&lt;/span&gt;&lt;span style=&quot;color: #e06c75&quot;&gt;$idregla&lt;/span&gt;&lt;span style=&quot;color: #abb2bf&quot;&gt;;&lt;/span&gt;&lt;/div&gt;&lt;div&gt;&lt;div&gt;&lt;span style=&quot;color: #e06c75&quot;&gt;$tipo_cargo&lt;/span&gt;&lt;span style=&quot;color: #56b6c2&quot;&gt;=&lt;/span&gt;&lt;span style=&quot;color: #e06c75&quot;&gt;$row&lt;/span&gt;&lt;span style=&quot;color: #abb2bf&quot;&gt;[&lt;/span&gt;&lt;span style=&quot;color: #98c379&quot;&gt;&quot;tipo_cargo&quot;&lt;/span&gt;&lt;span style=&quot;color: #abb2bf&quot;&gt;];&lt;/span&gt;&lt;/div&gt;&lt;span style=&quot;color: #abb2bf&quot;&gt;&lt;/span&gt;&lt;/div&gt;&lt;/div&gt;&lt;/div&gt;&lt;/div&gt;" style="text;whiteSpace=wrap;html=1;" parent="1" vertex="1">
          <mxGeometry x="110" y="390" width="270" height="70" as="geometry" />
        </mxCell>
        <mxCell id="1ylVQQ3sh8P-H1glT6XM-13" value="" style="edgeStyle=orthogonalEdgeStyle;rounded=0;orthogonalLoop=1;jettySize=auto;html=1;" parent="1" source="1ylVQQ3sh8P-H1glT6XM-10" target="1ylVQQ3sh8P-H1glT6XM-12" edge="1">
          <mxGeometry relative="1" as="geometry" />
        </mxCell>
        <mxCell id="wRwia8m4Fj-E2qncx0wM-3" value="" style="edgeStyle=orthogonalEdgeStyle;rounded=0;orthogonalLoop=1;jettySize=auto;html=1;" parent="1" source="1ylVQQ3sh8P-H1glT6XM-10" target="1ylVQQ3sh8P-H1glT6XM-12" edge="1">
          <mxGeometry relative="1" as="geometry" />
        </mxCell>
        <mxCell id="wRwia8m4Fj-E2qncx0wM-5" value="" style="edgeStyle=orthogonalEdgeStyle;rounded=0;orthogonalLoop=1;jettySize=auto;html=1;" parent="1" source="1ylVQQ3sh8P-H1glT6XM-10" target="wRwia8m4Fj-E2qncx0wM-4" edge="1">
          <mxGeometry relative="1" as="geometry" />
        </mxCell>
        <mxCell id="wRwia8m4Fj-E2qncx0wM-7" value="" style="edgeStyle=orthogonalEdgeStyle;rounded=0;orthogonalLoop=1;jettySize=auto;html=1;" parent="1" source="1ylVQQ3sh8P-H1glT6XM-10" target="wRwia8m4Fj-E2qncx0wM-6" edge="1">
          <mxGeometry relative="1" as="geometry" />
        </mxCell>
        <mxCell id="nO0bLM9SPIQuTMpQvS7K-3" value="" style="edgeStyle=orthogonalEdgeStyle;rounded=0;orthogonalLoop=1;jettySize=auto;html=1;entryX=0.001;entryY=0.075;entryDx=0;entryDy=0;entryPerimeter=0;" parent="1" source="1ylVQQ3sh8P-H1glT6XM-10" target="nO0bLM9SPIQuTMpQvS7K-2" edge="1">
          <mxGeometry relative="1" as="geometry" />
        </mxCell>
        <mxCell id="1ylVQQ3sh8P-H1glT6XM-10" value="&lt;div style=&quot;color: rgb(171 , 178 , 191) ; background-color: rgb(40 , 44 , 52) ; font-family: &amp;#34;consolas&amp;#34; , &amp;#34;courier new&amp;#34; , monospace ; font-weight: normal ; font-size: 16px ; line-height: 22px&quot;&gt;&lt;div&gt;&lt;span style=&quot;color: #c678dd&quot;&gt;if&lt;/span&gt;&lt;span style=&quot;color: #abb2bf&quot;&gt;&amp;nbsp;(&lt;/span&gt;&lt;span style=&quot;color: #e06c75&quot;&gt;$tipo_cargo&lt;/span&gt;&lt;span style=&quot;color: #56b6c2&quot;&gt;&amp;lt;&lt;/span&gt;&lt;span style=&quot;color: #d19a66&quot;&gt;2&lt;/span&gt;&lt;span style=&quot;color: #abb2bf&quot;&gt;){&lt;/span&gt;&lt;/div&gt;&lt;/div&gt;" style="text;whiteSpace=wrap;html=1;" parent="1" vertex="1">
          <mxGeometry x="130" y="510" width="170" height="30" as="geometry" />
        </mxCell>
        <mxCell id="nO0bLM9SPIQuTMpQvS7K-9" value="" style="edgeStyle=orthogonalEdgeStyle;rounded=0;orthogonalLoop=1;jettySize=auto;html=1;" parent="1" source="nO0bLM9SPIQuTMpQvS7K-2" target="nO0bLM9SPIQuTMpQvS7K-8" edge="1">
          <mxGeometry relative="1" as="geometry" />
        </mxCell>
        <mxCell id="nO0bLM9SPIQuTMpQvS7K-13" style="edgeStyle=orthogonalEdgeStyle;rounded=0;orthogonalLoop=1;jettySize=auto;html=1;exitX=0.75;exitY=1;exitDx=0;exitDy=0;entryX=0.25;entryY=0;entryDx=0;entryDy=0;" parent="1" source="nO0bLM9SPIQuTMpQvS7K-2" target="nO0bLM9SPIQuTMpQvS7K-10" edge="1">
          <mxGeometry relative="1" as="geometry" />
        </mxCell>
        <mxCell id="nO0bLM9SPIQuTMpQvS7K-2" value="&lt;div style=&quot;background-color: rgb(40 , 44 , 52) ; font-family: &amp;#34;consolas&amp;#34; , &amp;#34;courier new&amp;#34; , monospace ; font-weight: normal ; font-size: 16px ; line-height: 22px&quot;&gt;&lt;div&gt;&lt;span style=&quot;color: rgb(198 , 120 , 221)&quot;&gt;if&lt;/span&gt;&lt;span style=&quot;color: rgb(171 , 178 , 191)&quot;&gt;&amp;nbsp;(&lt;/span&gt;&lt;span style=&quot;color: rgb(224 , 108 , 117)&quot;&gt;$tipo_cargo&lt;/span&gt;&lt;font color=&quot;#56b6c2&quot;&gt;&amp;nbsp;==&lt;/font&gt;&lt;span style=&quot;color: rgb(209 , 154 , 102)&quot;&gt;2&lt;/span&gt;&lt;span style=&quot;color: rgb(171 , 178 , 191)&quot;&gt;){&lt;/span&gt;&lt;/div&gt;&lt;div&gt;&lt;span style=&quot;color: rgb(171 , 178 , 191)&quot;&gt;&lt;br&gt;&lt;/span&gt;&lt;/div&gt;&lt;div&gt;&lt;div style=&quot;color: rgb(171 , 178 , 191) ; font-family: &amp;#34;consolas&amp;#34; , &amp;#34;courier new&amp;#34; , monospace ; line-height: 22px&quot;&gt;&lt;div&gt;&lt;span style=&quot;color: #61afef&quot;&gt;db_query3&lt;/span&gt;(&lt;span style=&quot;color: #98c379&quot;&gt;&quot;select&amp;nbsp;*&amp;nbsp;from&amp;nbsp;reglas&amp;nbsp;where&amp;nbsp;eidregla=&quot;&lt;/span&gt;.&lt;span style=&quot;color: #e06c75&quot;&gt;$miregla&lt;/span&gt;.&lt;span style=&quot;color: #98c379&quot;&gt;&quot;&amp;nbsp;and&amp;nbsp;idEmpresa&amp;nbsp;=&amp;nbsp;&#39;&quot;&lt;/span&gt;.&lt;span style=&quot;color: #e06c75&quot;&gt;$_SESSION&lt;/span&gt;[&lt;span style=&quot;color: #98c379&quot;&gt;&#39;sess_userData&#39;&lt;/span&gt;][&lt;span style=&quot;color: #98c379&quot;&gt;&#39;empresa&#39;&lt;/span&gt;][&lt;span style=&quot;color: #98c379&quot;&gt;&#39;idEmpresa&#39;&lt;/span&gt;].&lt;span style=&quot;color: #98c379&quot;&gt;&quot;&#39;&quot;&lt;/span&gt;);&lt;/div&gt;&lt;div&gt;&lt;br&gt;&lt;/div&gt;&lt;div&gt;&lt;span style=&quot;color: #e06c75&quot;&gt;$tipodecargo&lt;/span&gt;&lt;span style=&quot;color: #56b6c2&quot;&gt;=&lt;/span&gt;&lt;span style=&quot;color: #e06c75&quot;&gt;$row3&lt;/span&gt;[&lt;span style=&quot;color: #98c379&quot;&gt;&quot;tipo_unidad&quot;&lt;/span&gt;];&lt;/div&gt;&lt;div&gt;&lt;br&gt;&lt;/div&gt;&lt;div&gt;&lt;span style=&quot;color: #e06c75&quot;&gt;$currency&lt;/span&gt;&lt;span style=&quot;color: #56b6c2&quot;&gt;=&lt;/span&gt;&lt;span style=&quot;color: #e06c75&quot;&gt;$row3&lt;/span&gt;[&lt;span style=&quot;color: #98c379&quot;&gt;&quot;moneda&quot;&lt;/span&gt;];&lt;/div&gt;&lt;div&gt;&lt;br&gt;&lt;/div&gt;&lt;div&gt;&lt;span style=&quot;color: #e06c75&quot;&gt;$amount&lt;/span&gt;&lt;span style=&quot;color: #56b6c2&quot;&gt;=&lt;/span&gt;&lt;span style=&quot;color: #e06c75&quot;&gt;$row3&lt;/span&gt;[&lt;span style=&quot;color: #98c379&quot;&gt;&quot;cantidad&quot;&lt;/span&gt;];&lt;/div&gt;&lt;/div&gt;&lt;/div&gt;&lt;div&gt;&lt;span style=&quot;color: rgb(171 , 178 , 191)&quot;&gt;&lt;br&gt;&lt;/span&gt;&lt;/div&gt;&lt;div&gt;&lt;span style=&quot;color: rgb(171 , 178 , 191)&quot;&gt;acordarse que este for que es solo de services fee dejarlo a lo ultimo, y esta logica lo que va a hacer es hacer el cargo o el descuento sin importar los demas tipos&lt;/span&gt;&lt;/div&gt;&lt;/div&gt;" style="text;whiteSpace=wrap;html=1;" parent="1" vertex="1">
          <mxGeometry x="1050" y="350" width="1240" height="290" as="geometry" />
        </mxCell>
        <mxCell id="nO0bLM9SPIQuTMpQvS7K-15" value="" style="edgeStyle=orthogonalEdgeStyle;rounded=0;orthogonalLoop=1;jettySize=auto;html=1;" parent="1" source="nO0bLM9SPIQuTMpQvS7K-8" target="nO0bLM9SPIQuTMpQvS7K-14" edge="1">
          <mxGeometry relative="1" as="geometry" />
        </mxCell>
        <mxCell id="nO0bLM9SPIQuTMpQvS7K-17" style="edgeStyle=orthogonalEdgeStyle;rounded=0;orthogonalLoop=1;jettySize=auto;html=1;exitX=0.25;exitY=1;exitDx=0;exitDy=0;entryX=0.411;entryY=0.033;entryDx=0;entryDy=0;entryPerimeter=0;fontColor=#FFFFFF;" parent="1" source="nO0bLM9SPIQuTMpQvS7K-8" target="nO0bLM9SPIQuTMpQvS7K-16" edge="1">
          <mxGeometry relative="1" as="geometry" />
        </mxCell>
        <mxCell id="nO0bLM9SPIQuTMpQvS7K-8" value="&lt;div style=&quot;background-color: rgb(40 , 44 , 52) ; font-family: &amp;#34;consolas&amp;#34; , &amp;#34;courier new&amp;#34; , monospace ; font-weight: normal ; font-size: 16px ; line-height: 22px&quot;&gt;&lt;font color=&quot;#c678dd&quot;&gt;if $tipo_unidad ==&amp;nbsp; 0 | %&lt;/font&gt;&lt;/div&gt;" style="text;whiteSpace=wrap;html=1;" parent="1" vertex="1">
          <mxGeometry x="1020" y="700" width="250" height="30" as="geometry" />
        </mxCell>
        <mxCell id="nO0bLM9SPIQuTMpQvS7K-14" value="&lt;div style=&quot;background-color: rgb(40 , 44 , 52) ; font-family: &amp;#34;consolas&amp;#34; , &amp;#34;courier new&amp;#34; , monospace ; font-weight: normal ; font-size: 16px ; line-height: 22px&quot;&gt;&lt;font color=&quot;#c678dd&quot;&gt;$milog[$numero itinerario] =&amp;nbsp;&lt;/font&gt;&lt;span style=&quot;font-family: &amp;#34;consolas&amp;#34; , &amp;#34;courier new&amp;#34; , monospace ; color: rgb(152 , 195 , 121)&quot;&gt;de&amp;nbsp;tipo&amp;nbsp;PORCENTAJE&amp;nbsp;de&amp;nbsp;&lt;/span&gt;&lt;/div&gt;&lt;div style=&quot;background-color: rgb(40 , 44 , 52) ; font-family: &amp;#34;consolas&amp;#34; , &amp;#34;courier new&amp;#34; , monospace ; font-weight: normal ; font-size: 16px ; line-height: 22px&quot;&gt;&lt;span style=&quot;font-family: &amp;#34;consolas&amp;#34; , &amp;#34;courier new&amp;#34; , monospace ; color: rgb(152 , 195 , 121)&quot;&gt;&quot;&lt;/span&gt;&lt;span style=&quot;color: rgb(171 , 178 , 191) ; font-family: &amp;#34;consolas&amp;#34; , &amp;#34;courier new&amp;#34; , monospace&quot;&gt;.&lt;/span&gt;&lt;span style=&quot;font-family: &amp;#34;consolas&amp;#34; , &amp;#34;courier new&amp;#34; , monospace ; color: rgb(224 , 108 , 117)&quot;&gt;$amount&lt;/span&gt;&lt;span style=&quot;color: rgb(171 , 178 , 191) ; font-family: &amp;#34;consolas&amp;#34; , &amp;#34;courier new&amp;#34; , monospace&quot;&gt;.&lt;/span&gt;&lt;span style=&quot;font-family: &amp;#34;consolas&amp;#34; , &amp;#34;courier new&amp;#34; , monospace ; color: rgb(152 , 195 , 121)&quot;&gt;&quot;&amp;nbsp;sobre&amp;nbsp;&lt;/span&gt;&lt;/div&gt;&lt;div style=&quot;background-color: rgb(40 , 44 , 52) ; font-family: &amp;#34;consolas&amp;#34; , &amp;#34;courier new&amp;#34; , monospace ; font-weight: normal ; font-size: 16px ; line-height: 22px&quot;&gt;&lt;span style=&quot;font-family: &amp;#34;consolas&amp;#34; , &amp;#34;courier new&amp;#34; , monospace ; color: rgb(152 , 195 , 121)&quot;&gt;el&amp;nbsp;tl&amp;nbsp;de&amp;nbsp;adultos&amp;nbsp;y&amp;nbsp;ninos&quot;&lt;/span&gt;&lt;span style=&quot;color: rgb(171 , 178 , 191) ; font-family: &amp;#34;consolas&amp;#34; , &amp;#34;courier new&amp;#34; , monospace&quot;&gt;;&lt;/span&gt;&lt;/div&gt;" style="text;whiteSpace=wrap;html=1;" parent="1" vertex="1">
          <mxGeometry x="1120" y="790" width="240" height="80" as="geometry" />
        </mxCell>
        <mxCell id="opEgY--enB1-h1R6FWiN-11" value="" style="edgeStyle=orthogonalEdgeStyle;rounded=0;orthogonalLoop=1;jettySize=auto;html=1;" parent="1" source="wRwia8m4Fj-E2qncx0wM-6" target="opEgY--enB1-h1R6FWiN-10" edge="1">
          <mxGeometry relative="1" as="geometry" />
        </mxCell>
        <mxCell id="wRwia8m4Fj-E2qncx0wM-6" value="&lt;div style=&quot;background-color: rgb(40 , 44 , 52) ; font-family: &amp;#34;consolas&amp;#34; , &amp;#34;courier new&amp;#34; , monospace ; font-weight: normal ; font-size: 16px ; line-height: 22px&quot;&gt;&lt;div&gt;&lt;span style=&quot;color: rgb(198 , 120 , 221)&quot;&gt;if&lt;/span&gt;&lt;span style=&quot;color: rgb(171 , 178 , 191)&quot;&gt;&amp;nbsp;(&lt;/span&gt;&lt;span style=&quot;color: rgb(224 , 108 , 117)&quot;&gt;$tipo_cargo&lt;/span&gt;&lt;font color=&quot;#56b6c2&quot;&gt;==&lt;/font&gt;&lt;font color=&quot;#d19a66&quot;&gt;1&lt;/font&gt;&lt;span style=&quot;color: rgb(171 , 178 , 191)&quot;&gt;){&lt;/span&gt;&lt;/div&gt;&lt;/div&gt;" style="text;whiteSpace=wrap;html=1;" parent="1" vertex="1">
          <mxGeometry x="-140" y="600" width="190" height="30" as="geometry" />
        </mxCell>
        <mxCell id="opEgY--enB1-h1R6FWiN-10" value="&lt;div style=&quot;background-color: rgb(40 , 44 , 52) ; font-family: &amp;#34;consolas&amp;#34; , &amp;#34;courier new&amp;#34; , monospace ; font-weight: normal ; font-size: 16px ; line-height: 22px&quot;&gt;&lt;div style=&quot;color: rgb(171 , 178 , 191) ; font-family: &amp;#34;consolas&amp;#34; , &amp;#34;courier new&amp;#34; , monospace ; line-height: 22px&quot;&gt;&lt;span style=&quot;color: #e06c75&quot;&gt;$mitipounidad&lt;/span&gt;&lt;span style=&quot;color: #56b6c2&quot;&gt;==&lt;/span&gt;&lt;span style=&quot;color: #d19a66&quot;&gt;0&lt;/span&gt;&lt;/div&gt;&lt;/div&gt;" style="text;whiteSpace=wrap;html=1;" parent="1" vertex="1">
          <mxGeometry x="-280" y="720" width="150" height="30" as="geometry" />
        </mxCell>
        <mxCell id="wRwia8m4Fj-E2qncx0wM-4" value="&lt;div style=&quot;color: rgb(171 , 178 , 191) ; background-color: rgb(40 , 44 , 52) ; font-family: &amp;#34;consolas&amp;#34; , &amp;#34;courier new&amp;#34; , monospace ; font-weight: normal ; font-size: 16px ; line-height: 22px&quot;&gt;&lt;div style=&quot;font-family: &amp;#34;consolas&amp;#34; , &amp;#34;courier new&amp;#34; , monospace ; line-height: 22px&quot;&gt;&lt;span style=&quot;color: #c678dd&quot;&gt;if&lt;/span&gt;&amp;nbsp;((&lt;span style=&quot;color: #e06c75&quot;&gt;$tipo_cargo&lt;/span&gt;&lt;span style=&quot;color: #56b6c2&quot;&gt;==&lt;/span&gt;&lt;span style=&quot;color: #d19a66&quot;&gt;0&lt;/span&gt;)&lt;/div&gt;&lt;/div&gt;" style="text;whiteSpace=wrap;html=1;" parent="1" vertex="1">
          <mxGeometry x="-360" y="600" width="170" height="30" as="geometry" />
        </mxCell>
        <mxCell id="opEgY--enB1-h1R6FWiN-1" value="&lt;div style=&quot;background-color: rgb(40 , 44 , 52) ; font-family: &amp;#34;consolas&amp;#34; , &amp;#34;courier new&amp;#34; , monospace ; font-weight: normal ; font-size: 16px ; line-height: 22px&quot;&gt;&lt;div style=&quot;font-family: &amp;#34;consolas&amp;#34; , &amp;#34;courier new&amp;#34; , monospace ; line-height: 22px&quot;&gt;&lt;div style=&quot;color: rgb(171 , 178 , 191) ; font-family: &amp;#34;consolas&amp;#34; , &amp;#34;courier new&amp;#34; , monospace ; line-height: 22px&quot;&gt;&lt;span style=&quot;color: #e06c75&quot;&gt;$diff&lt;/span&gt;&lt;span style=&quot;color: #56b6c2&quot;&gt;=floatval&lt;/span&gt;(&lt;span style=&quot;color: #e06c75&quot;&gt;$money&lt;/span&gt;)&lt;span style=&quot;color: #56b6c2&quot;&gt;*floatval&lt;/span&gt;(&lt;span style=&quot;color: #e06c75&quot;&gt;$miporc&lt;/span&gt;)&lt;span style=&quot;color: #56b6c2&quot;&gt;/&lt;/span&gt;&lt;span style=&quot;color: #d19a66&quot;&gt;100&lt;/span&gt;;&lt;/div&gt;&lt;div style=&quot;color: rgb(171 , 178 , 191) ; font-family: &amp;#34;consolas&amp;#34; , &amp;#34;courier new&amp;#34; , monospace ; line-height: 22px&quot;&gt;&lt;br&gt;&lt;/div&gt;&lt;/div&gt;&lt;div style=&quot;font-family: &amp;#34;consolas&amp;#34; , &amp;#34;courier new&amp;#34; , monospace ; line-height: 22px&quot;&gt;&lt;font color=&quot;#c678dd&quot;&gt;$mymoney = floatval($money) + $diff;&lt;/font&gt;&lt;/div&gt;&lt;div style=&quot;font-family: &amp;#34;consolas&amp;#34; , &amp;#34;courier new&amp;#34; , monospace ; line-height: 22px&quot;&gt;&lt;font color=&quot;#c678dd&quot;&gt;&lt;br&gt;&lt;/font&gt;&lt;/div&gt;&lt;div style=&quot;font-family: &amp;#34;consolas&amp;#34; , &amp;#34;courier new&amp;#34; , monospace ; line-height: 22px&quot;&gt;&lt;font color=&quot;#c678dd&quot;&gt;$porcent=&quot;+&quot;;&lt;/font&gt;&lt;/div&gt;&lt;div style=&quot;font-family: &amp;#34;consolas&amp;#34; , &amp;#34;courier new&amp;#34; , monospace ; line-height: 22px&quot;&gt;&lt;font color=&quot;#c678dd&quot;&gt;&lt;br&gt;&lt;/font&gt;&lt;/div&gt;&lt;div style=&quot;font-family: &amp;#34;consolas&amp;#34; , &amp;#34;courier new&amp;#34; , monospace ; line-height: 22px&quot;&gt;&lt;div style=&quot;color: rgb(171 , 178 , 191) ; font-family: &amp;#34;consolas&amp;#34; , &amp;#34;courier new&amp;#34; , monospace ; line-height: 22px&quot;&gt;&lt;span style=&quot;color: #e06c75&quot;&gt;$poramount&lt;/span&gt;&lt;span style=&quot;color: #56b6c2&quot;&gt;=&lt;/span&gt;&lt;span style=&quot;color: #e06c75&quot;&gt;$diff&lt;/span&gt;;&lt;/div&gt;&lt;/div&gt;&lt;/div&gt;" style="text;whiteSpace=wrap;html=1;" parent="1" vertex="1">
          <mxGeometry x="-1130" y="860" width="450" height="30" as="geometry" />
        </mxCell>
        <mxCell id="1ylVQQ3sh8P-H1glT6XM-12" value="&lt;div style=&quot;color: rgb(171 , 178 , 191) ; background-color: rgb(40 , 44 , 52) ; font-family: &amp;#34;consolas&amp;#34; , &amp;#34;courier new&amp;#34; , monospace ; font-weight: normal ; font-size: 16px ; line-height: 22px&quot;&gt;&lt;div style=&quot;color: rgb(171 , 178 , 191) ; background-color: rgb(40 , 44 , 52) ; font-family: &amp;#34;consolas&amp;#34; , &amp;#34;courier new&amp;#34; , monospace ; font-weight: normal ; font-size: 16px ; line-height: 22px&quot;&gt;&lt;div style=&quot;font-family: &amp;#34;consolas&amp;#34; , &amp;#34;courier new&amp;#34; , monospace ; line-height: 22px&quot;&gt;&lt;span style=&quot;color: #e06c75&quot;&gt;$def&lt;/span&gt;&lt;span style=&quot;color: #56b6c2&quot;&gt;=&lt;/span&gt;&lt;span style=&quot;color: #98c379&quot;&gt;&quot;si&quot;&lt;/span&gt;;&lt;/div&gt;&lt;div style=&quot;font-family: &amp;#34;consolas&amp;#34; , &amp;#34;courier new&amp;#34; , monospace ; line-height: 22px&quot;&gt;&lt;span style=&quot;color: #7f848e ; font-style: italic&quot;&gt;//Igual&amp;nbsp;queremos&amp;nbsp;aplicar&amp;nbsp;lo&amp;nbsp;de&amp;nbsp;la&amp;nbsp;agencia&lt;/span&gt;&lt;/div&gt;&lt;/div&gt;&lt;/div&gt;" style="text;whiteSpace=wrap;html=1;" parent="1" vertex="1">
          <mxGeometry x="45" y="650" width="305" height="100" as="geometry" />
        </mxCell>
        <mxCell id="1ylVQQ3sh8P-H1glT6XM-5" value="" style="endArrow=classic;html=1;" parent="1" source="1ylVQQ3sh8P-H1glT6XM-1" edge="1">
          <mxGeometry width="50" height="50" relative="1" as="geometry">
            <mxPoint x="390" y="340" as="sourcePoint" />
            <mxPoint x="480" y="300" as="targetPoint" />
          </mxGeometry>
        </mxCell>
        <mxCell id="1ylVQQ3sh8P-H1glT6XM-17" value="" style="edgeStyle=orthogonalEdgeStyle;rounded=0;orthogonalLoop=1;jettySize=auto;html=1;" parent="1" source="1ylVQQ3sh8P-H1glT6XM-14" target="1ylVQQ3sh8P-H1glT6XM-16" edge="1">
          <mxGeometry relative="1" as="geometry" />
        </mxCell>
        <mxCell id="1ylVQQ3sh8P-H1glT6XM-14" value="&lt;div style=&quot;color: rgb(171 , 178 , 191) ; background-color: rgb(40 , 44 , 52) ; font-family: &amp;#34;consolas&amp;#34; , &amp;#34;courier new&amp;#34; , monospace ; font-weight: normal ; font-size: 16px ; line-height: 22px&quot;&gt;&lt;div&gt;&lt;span style=&quot;color: #98c379&quot;&gt;Le&amp;nbsp;aplicamos&amp;nbsp;a&amp;nbsp;la&amp;nbsp;tarifa&amp;nbsp;&quot;&lt;/span&gt;&lt;span style=&quot;color: #abb2bf&quot;&gt;.&lt;/span&gt;&lt;span style=&quot;color: #e06c75&quot;&gt;$money&lt;/span&gt;&lt;span style=&quot;color: #abb2bf&quot;&gt;.&lt;/span&gt;&lt;span style=&quot;color: #98c379&quot;&gt;&quot;&amp;nbsp;un &lt;br&gt;&lt;/span&gt;&lt;/div&gt;&lt;/div&gt;" style="text;html=1;align=center;verticalAlign=middle;resizable=0;points=[];autosize=1;fillColor=#fff2cc;strokeColor=#d6b656;" parent="1" vertex="1">
          <mxGeometry x="414" y="570" width="350" height="30" as="geometry" />
        </mxCell>
        <mxCell id="wRwia8m4Fj-E2qncx0wM-2" value="" style="edgeStyle=orthogonalEdgeStyle;rounded=0;orthogonalLoop=1;jettySize=auto;html=1;" parent="1" source="1ylVQQ3sh8P-H1glT6XM-16" target="wRwia8m4Fj-E2qncx0wM-1" edge="1">
          <mxGeometry relative="1" as="geometry" />
        </mxCell>
        <mxCell id="1ylVQQ3sh8P-H1glT6XM-16" value="&lt;div style=&quot;color: rgb(171 , 178 , 191) ; background-color: rgb(40 , 44 , 52) ; font-family: &amp;#34;consolas&amp;#34; , &amp;#34;courier new&amp;#34; , monospace ; font-weight: normal ; font-size: 16px ; line-height: 22px&quot; align=&quot;left&quot;&gt;&lt;div&gt;&lt;span style=&quot;color: #c678dd&quot;&gt;if&lt;/span&gt;&lt;span style=&quot;color: #abb2bf&quot;&gt;&amp;nbsp;(&lt;/span&gt;&lt;span style=&quot;color: #e06c75&quot;&gt;$tipo_cargo&lt;/span&gt;&lt;span style=&quot;color: #56b6c2&quot;&gt;==&lt;/span&gt;&lt;span style=&quot;color: #d19a66&quot;&gt;0&lt;/span&gt;&lt;span style=&quot;color: #abb2bf&quot;&gt;)&amp;nbsp;{&lt;/span&gt;&lt;span style=&quot;color: #e06c75&quot;&gt;$milog&lt;/span&gt;&lt;span style=&quot;color: #abb2bf&quot;&gt;[&lt;/span&gt;&lt;span style=&quot;color: #e06c75&quot;&gt;$jk&lt;/span&gt;&lt;span style=&quot;color: #abb2bf&quot;&gt;]&lt;/span&gt;&lt;span style=&quot;color: #abb2bf&quot;&gt;.=&lt;/span&gt;&lt;span style=&quot;color: #98c379&quot;&gt;&quot;&amp;nbsp;mark-up&amp;nbsp;de&amp;nbsp;&quot;&lt;/span&gt;&lt;span style=&quot;color: #abb2bf&quot;&gt;;}&lt;/span&gt;&lt;/div&gt;&lt;div&gt;&lt;span style=&quot;color: #abb2bf&quot;&gt;&lt;/span&gt;&lt;span style=&quot;color: #abb2bf&quot;&gt;&lt;/span&gt;&lt;span style=&quot;color: #c678dd&quot;&gt;if&lt;/span&gt;&lt;span style=&quot;color: #abb2bf&quot;&gt;&amp;nbsp;(&lt;/span&gt;&lt;span style=&quot;color: #e06c75&quot;&gt;$tipo_cargo&lt;/span&gt;&lt;span style=&quot;color: #56b6c2&quot;&gt;==&lt;/span&gt;&lt;span style=&quot;color: #d19a66&quot;&gt;1&lt;/span&gt;&lt;span style=&quot;color: #abb2bf&quot;&gt;)&amp;nbsp;{&lt;/span&gt;&lt;span style=&quot;color: #e06c75&quot;&gt;$milog&lt;/span&gt;&lt;span style=&quot;color: #abb2bf&quot;&gt;[&lt;/span&gt;&lt;span style=&quot;color: #e06c75&quot;&gt;$jk&lt;/span&gt;&lt;span style=&quot;color: #abb2bf&quot;&gt;]&lt;/span&gt;&lt;span style=&quot;color: #abb2bf&quot;&gt;.=&lt;/span&gt;&lt;span style=&quot;color: #98c379&quot;&gt;&quot;&amp;nbsp;descuento&amp;nbsp;de&amp;nbsp;&quot;&lt;/span&gt;&lt;span style=&quot;color: #abb2bf&quot;&gt;;}&lt;/span&gt;&lt;/div&gt;&lt;div&gt;&lt;span style=&quot;color: #abb2bf&quot;&gt;&lt;/span&gt;&lt;span style=&quot;color: #abb2bf&quot;&gt;&lt;/span&gt;&lt;span style=&quot;color: #c678dd&quot;&gt;if&lt;/span&gt;&lt;span style=&quot;color: #abb2bf&quot;&gt;&amp;nbsp;(&lt;/span&gt;&lt;span style=&quot;color: #e06c75&quot;&gt;$tipo_cargo&lt;/span&gt;&lt;span style=&quot;color: #56b6c2&quot;&gt;==&lt;/span&gt;&lt;span style=&quot;color: #d19a66&quot;&gt;2&lt;/span&gt;&lt;span style=&quot;color: #abb2bf&quot;&gt;)&amp;nbsp;{&lt;/span&gt;&lt;span style=&quot;color: #e06c75&quot;&gt;$milog&lt;/span&gt;&lt;span style=&quot;color: #abb2bf&quot;&gt;[&lt;/span&gt;&lt;span style=&quot;color: #e06c75&quot;&gt;$jk&lt;/span&gt;&lt;span style=&quot;color: #abb2bf&quot;&gt;]&lt;/span&gt;&lt;span style=&quot;color: #abb2bf&quot;&gt;.=&lt;/span&gt;&lt;span style=&quot;color: #98c379&quot;&gt;&quot;&amp;nbsp;cargo&amp;nbsp;de&amp;nbsp;gestion&amp;nbsp;de&amp;nbsp;&quot;&lt;/span&gt;&lt;span style=&quot;color: #abb2bf&quot;&gt;;}&lt;/span&gt;&lt;/div&gt;&lt;/div&gt;" style="text;html=1;align=left;verticalAlign=middle;resizable=0;points=[];autosize=1;fillColor=#fff2cc;strokeColor=#d6b656;" parent="1" vertex="1">
          <mxGeometry x="430" y="630" width="530" height="70" as="geometry" />
        </mxCell>
        <mxCell id="wRwia8m4Fj-E2qncx0wM-1" value="&lt;div style=&quot;background-color: rgb(40 , 44 , 52) ; line-height: 22px&quot; align=&quot;left&quot;&gt;&lt;div&gt;&lt;font color=&quot;#c678dd&quot; face=&quot;consolas, courier new, monospace&quot;&gt;&lt;span style=&quot;font-size: 16px&quot;&gt;if (($tipo_cargo&amp;lt;2) and ($mitipounidad==0)) {&lt;/span&gt;&lt;/font&gt;&lt;/div&gt;&lt;div&gt;&lt;font color=&quot;#c678dd&quot; face=&quot;consolas, courier new, monospace&quot;&gt;&lt;span style=&quot;font-size: 16px&quot;&gt;&lt;span&gt; &lt;/span&gt;$milog[$jk].=$diff.&quot;%&quot;;&lt;/span&gt;&lt;/font&gt;&lt;/div&gt;&lt;div&gt;&lt;font color=&quot;#c678dd&quot; face=&quot;consolas, courier new, monospace&quot;&gt;&lt;span style=&quot;font-size: 16px&quot;&gt;}&lt;/span&gt;&lt;/font&gt;&lt;/div&gt;&lt;div&gt;&lt;font color=&quot;#c678dd&quot; face=&quot;consolas, courier new, monospace&quot;&gt;&lt;span style=&quot;font-size: 16px&quot;&gt;&lt;br&gt;&lt;/span&gt;&lt;/font&gt;&lt;/div&gt;&lt;div&gt;&lt;font color=&quot;#c678dd&quot; face=&quot;consolas, courier new, monospace&quot;&gt;&lt;span style=&quot;font-size: 16px&quot;&gt;if (($tipo_cargo&amp;lt;2) and ($mitipounidad==1)) {&lt;/span&gt;&lt;/font&gt;&lt;/div&gt;&lt;div&gt;&lt;font color=&quot;#c678dd&quot; face=&quot;consolas, courier new, monospace&quot;&gt;&lt;span style=&quot;font-size: 16px&quot;&gt;&lt;span&gt; &lt;/span&gt;$milog[$jk].=$mimoneda.&quot; &quot;.$miporc;&lt;/span&gt;&lt;/font&gt;&lt;/div&gt;&lt;div&gt;&lt;font color=&quot;#c678dd&quot; face=&quot;consolas, courier new, monospace&quot;&gt;&lt;span style=&quot;font-size: 16px&quot;&gt;}&lt;/span&gt;&lt;/font&gt;&lt;/div&gt;&lt;/div&gt;" style="text;html=1;align=left;verticalAlign=middle;resizable=0;points=[];autosize=1;fillColor=#fff2cc;strokeColor=#d6b656;" parent="1" vertex="1">
          <mxGeometry x="440" y="750" width="410" height="160" as="geometry" />
        </mxCell>
        <mxCell id="1ylVQQ3sh8P-H1glT6XM-15" value="" style="endArrow=classic;html=1;exitX=0.646;exitY=1;exitDx=0;exitDy=0;exitPerimeter=0;" parent="1" source="1ylVQQ3sh8P-H1glT6XM-1" target="1ylVQQ3sh8P-H1glT6XM-14" edge="1">
          <mxGeometry width="50" height="50" relative="1" as="geometry">
            <mxPoint x="390" y="490" as="sourcePoint" />
            <mxPoint x="440" y="440" as="targetPoint" />
          </mxGeometry>
        </mxCell>
        <mxCell id="opEgY--enB1-h1R6FWiN-3" value="&lt;div style=&quot;color: rgb(171 , 178 , 191) ; background-color: rgb(40 , 44 , 52) ; font-family: &amp;#34;consolas&amp;#34; , &amp;#34;courier new&amp;#34; , monospace ; font-size: 16px ; line-height: 22px&quot;&gt;&lt;span style=&quot;color: #e06c75&quot;&gt;$mitipounidad&lt;/span&gt;&lt;span style=&quot;color: #56b6c2&quot;&gt;==&lt;/span&gt;&lt;span style=&quot;color: #d19a66&quot;&gt;0&lt;/span&gt;&lt;/div&gt;" style="text;html=1;align=center;verticalAlign=middle;resizable=0;points=[];autosize=1;" parent="1" vertex="1">
          <mxGeometry x="-880" y="610" width="160" height="30" as="geometry" />
        </mxCell>
        <mxCell id="opEgY--enB1-h1R6FWiN-6" value="" style="edgeStyle=orthogonalEdgeStyle;rounded=0;orthogonalLoop=1;jettySize=auto;html=1;" parent="1" source="opEgY--enB1-h1R6FWiN-4" target="opEgY--enB1-h1R6FWiN-5" edge="1">
          <mxGeometry relative="1" as="geometry" />
        </mxCell>
        <mxCell id="opEgY--enB1-h1R6FWiN-4" value="&lt;div style=&quot;color: rgb(171 , 178 , 191) ; background-color: rgb(40 , 44 , 52) ; font-family: &amp;#34;consolas&amp;#34; , &amp;#34;courier new&amp;#34; , monospace ; font-size: 16px ; line-height: 22px&quot;&gt;&lt;span style=&quot;color: #e06c75&quot;&gt;$mitipounidad&lt;/span&gt;&lt;span style=&quot;color: #56b6c2&quot;&gt;==&lt;/span&gt;&lt;span style=&quot;color: #d19a66&quot;&gt;1&lt;/span&gt;)&lt;/div&gt;" style="text;html=1;align=center;verticalAlign=middle;resizable=0;points=[];autosize=1;" parent="1" vertex="1">
          <mxGeometry x="-680" y="700" width="160" height="30" as="geometry" />
        </mxCell>
        <mxCell id="opEgY--enB1-h1R6FWiN-5" value="&lt;div style=&quot;color: rgb(171 , 178 , 191) ; background-color: rgb(40 , 44 , 52) ; font-family: &amp;quot;consolas&amp;quot; , &amp;quot;courier new&amp;quot; , monospace ; font-size: 16px ; line-height: 22px&quot;&gt;&lt;div style=&quot;font-family: &amp;quot;consolas&amp;quot; , &amp;quot;courier new&amp;quot; , monospace ; line-height: 22px&quot;&gt;&lt;span style=&quot;color: #e06c75&quot;&gt;$mimoney&lt;/span&gt;&lt;span style=&quot;color: #56b6c2&quot;&gt;=floatval&lt;/span&gt;(&lt;span style=&quot;color: #e06c75&quot;&gt;$money&lt;/span&gt;)&lt;span style=&quot;color: #56b6c2&quot;&gt;+&lt;/span&gt;&lt;span style=&quot;color: #e06c75&quot;&gt;$miporc&lt;/span&gt;;&lt;/div&gt;&lt;div style=&quot;font-family: &amp;quot;consolas&amp;quot; , &amp;quot;courier new&amp;quot; , monospace ; line-height: 22px&quot;&gt;&lt;span style=&quot;color: rgb(224 , 108 , 117)&quot;&gt;&lt;br&gt;&lt;/span&gt;&lt;/div&gt;&lt;div style=&quot;font-family: &amp;quot;consolas&amp;quot; , &amp;quot;courier new&amp;quot; , monospace ; line-height: 22px&quot;&gt;&lt;span style=&quot;color: rgb(224 , 108 , 117)&quot;&gt;$porcent&lt;/span&gt;&lt;span style=&quot;color: rgb(86 , 182 , 194)&quot;&gt;=&lt;/span&gt;&lt;span style=&quot;color: rgb(152 , 195 , 121)&quot;&gt;&quot;+&quot;&lt;/span&gt;;&lt;/div&gt;&lt;div style=&quot;font-family: &amp;quot;consolas&amp;quot; , &amp;quot;courier new&amp;quot; , monospace ; line-height: 22px&quot;&gt;&lt;span style=&quot;color: rgb(224 , 108 , 117)&quot;&gt;&lt;br&gt;&lt;/span&gt;&lt;/div&gt;&lt;div style=&quot;font-family: &amp;quot;consolas&amp;quot; , &amp;quot;courier new&amp;quot; , monospace ; line-height: 22px&quot;&gt;&lt;span style=&quot;color: rgb(224 , 108 , 117)&quot;&gt;$poramount&lt;/span&gt;&lt;span style=&quot;color: rgb(86 , 182 , 194)&quot;&gt;=&lt;/span&gt;&lt;span style=&quot;color: rgb(224 , 108 , 117)&quot;&gt;$miporc&lt;/span&gt;;&lt;/div&gt;&lt;/div&gt;" style="text;html=1;align=left;verticalAlign=middle;resizable=0;points=[];autosize=1;" parent="1" vertex="1">
          <mxGeometry x="-700" y="870" width="310" height="110" as="geometry" />
        </mxCell>
        <mxCell id="opEgY--enB1-h1R6FWiN-9" value="" style="endArrow=classic;html=1;exitX=0.5;exitY=1;exitDx=0;exitDy=0;" parent="1" source="wRwia8m4Fj-E2qncx0wM-4" target="opEgY--enB1-h1R6FWiN-4" edge="1">
          <mxGeometry width="50" height="50" relative="1" as="geometry">
            <mxPoint x="-410" y="830" as="sourcePoint" />
            <mxPoint x="-360" y="780" as="targetPoint" />
          </mxGeometry>
        </mxCell>
        <mxCell id="opEgY--enB1-h1R6FWiN-19" value="" style="edgeStyle=orthogonalEdgeStyle;rounded=0;orthogonalLoop=1;jettySize=auto;html=1;" parent="1" source="opEgY--enB1-h1R6FWiN-12" target="opEgY--enB1-h1R6FWiN-18" edge="1">
          <mxGeometry relative="1" as="geometry" />
        </mxCell>
        <mxCell id="opEgY--enB1-h1R6FWiN-12" value="&lt;div style=&quot;background-color: rgb(40 , 44 , 52) ; font-family: &amp;#34;consolas&amp;#34; , &amp;#34;courier new&amp;#34; , monospace ; font-size: 16px ; line-height: 22px&quot;&gt;&lt;span style=&quot;color: rgb(224 , 108 , 117)&quot;&gt;$mitipounidad&lt;/span&gt;&lt;span style=&quot;color: rgb(86 , 182 , 194)&quot;&gt;==&lt;/span&gt;&lt;font color=&quot;#d19a66&quot;&gt;1&lt;/font&gt;&lt;/div&gt;" style="text;html=1;align=center;verticalAlign=middle;resizable=0;points=[];autosize=1;" parent="1" vertex="1">
          <mxGeometry x="-80" y="720" width="160" height="30" as="geometry" />
        </mxCell>
        <mxCell id="opEgY--enB1-h1R6FWiN-18" value="&lt;div style=&quot;background-color: rgb(40 , 44 , 52) ; font-family: &amp;quot;consolas&amp;quot; , &amp;quot;courier new&amp;quot; , monospace ; font-size: 16px ; line-height: 22px&quot;&gt;&lt;div style=&quot;color: rgb(171 , 178 , 191) ; font-family: &amp;quot;consolas&amp;quot; , &amp;quot;courier new&amp;quot; , monospace ; line-height: 22px&quot;&gt;&lt;span style=&quot;color: #e06c75&quot;&gt;$mimoney&lt;/span&gt;&lt;span style=&quot;color: #56b6c2&quot;&gt;=floatval&lt;/span&gt;(&lt;span style=&quot;color: #e06c75&quot;&gt;$money&lt;/span&gt;)&lt;span style=&quot;color: #56b6c2&quot;&gt;-&lt;/span&gt;&lt;span style=&quot;color: #e06c75&quot;&gt;$miporc&lt;/span&gt;;&lt;/div&gt;&lt;div style=&quot;color: rgb(171 , 178 , 191) ; font-family: &amp;quot;consolas&amp;quot; , &amp;quot;courier new&amp;quot; , monospace ; line-height: 22px&quot;&gt;&lt;span style=&quot;color: #e06c75&quot;&gt;&lt;br&gt;&lt;/span&gt;&lt;/div&gt;&lt;div style=&quot;color: rgb(171 , 178 , 191) ; font-family: &amp;quot;consolas&amp;quot; , &amp;quot;courier new&amp;quot; , monospace ; line-height: 22px&quot;&gt;&lt;span style=&quot;color: #e06c75&quot;&gt;$porcent&lt;/span&gt;&lt;span style=&quot;color: #56b6c2&quot;&gt;=&lt;/span&gt;&lt;span style=&quot;color: #98c379&quot;&gt;&quot;-&quot;&lt;/span&gt;;&lt;/div&gt;&lt;div style=&quot;color: rgb(171 , 178 , 191) ; font-family: &amp;quot;consolas&amp;quot; , &amp;quot;courier new&amp;quot; , monospace ; line-height: 22px&quot;&gt;&lt;span style=&quot;color: #e06c75&quot;&gt;&lt;br&gt;&lt;/span&gt;&lt;/div&gt;&lt;div style=&quot;color: rgb(171 , 178 , 191) ; font-family: &amp;quot;consolas&amp;quot; , &amp;quot;courier new&amp;quot; , monospace ; line-height: 22px&quot;&gt;&lt;span style=&quot;color: #e06c75&quot;&gt;$poramount&lt;/span&gt;&lt;span style=&quot;color: #56b6c2&quot;&gt;=&lt;/span&gt;&lt;span style=&quot;color: #e06c75&quot;&gt;$miporc&lt;/span&gt;;&lt;/div&gt;&lt;/div&gt;" style="text;html=1;align=left;verticalAlign=middle;resizable=0;points=[];autosize=1;" parent="1" vertex="1">
          <mxGeometry x="45" y="850" width="310" height="110" as="geometry" />
        </mxCell>
        <mxCell id="opEgY--enB1-h1R6FWiN-13" value="" style="endArrow=classic;html=1;exitX=0.711;exitY=0.989;exitDx=0;exitDy=0;exitPerimeter=0;" parent="1" source="wRwia8m4Fj-E2qncx0wM-6" target="opEgY--enB1-h1R6FWiN-12" edge="1">
          <mxGeometry width="50" height="50" relative="1" as="geometry">
            <mxPoint x="20" y="830" as="sourcePoint" />
            <mxPoint x="70" y="780" as="targetPoint" />
          </mxGeometry>
        </mxCell>
        <mxCell id="opEgY--enB1-h1R6FWiN-14" value="&lt;div style=&quot;color: rgb(171 , 178 , 191) ; background-color: rgb(40 , 44 , 52) ; font-family: &amp;#34;consolas&amp;#34; , &amp;#34;courier new&amp;#34; , monospace ; font-size: 16px ; line-height: 22px&quot;&gt;&lt;div style=&quot;font-family: &amp;#34;consolas&amp;#34; , &amp;#34;courier new&amp;#34; , monospace ; line-height: 22px&quot;&gt;&lt;span style=&quot;color: #e06c75&quot;&gt;$diff&lt;/span&gt;&lt;span style=&quot;color: #56b6c2&quot;&gt;=floatval&lt;/span&gt;(&lt;span style=&quot;color: #e06c75&quot;&gt;$money&lt;/span&gt;)&lt;span style=&quot;color: #56b6c2&quot;&gt;*floatval&lt;/span&gt;(&lt;span style=&quot;color: #e06c75&quot;&gt;$miporc&lt;/span&gt;)&lt;span style=&quot;color: #56b6c2&quot;&gt;/&lt;/span&gt;&lt;span style=&quot;color: #d19a66&quot;&gt;100&lt;/span&gt;;&lt;/div&gt;&lt;/div&gt;&lt;div style=&quot;color: rgb(171 , 178 , 191) ; background-color: rgb(40 , 44 , 52) ; font-family: &amp;#34;consolas&amp;#34; , &amp;#34;courier new&amp;#34; , monospace ; font-size: 16px ; line-height: 22px&quot;&gt;&lt;span style=&quot;color: #e06c75&quot;&gt;&lt;br&gt;&lt;/span&gt;&lt;/div&gt;&lt;div style=&quot;color: rgb(171 , 178 , 191) ; background-color: rgb(40 , 44 , 52) ; font-family: &amp;#34;consolas&amp;#34; , &amp;#34;courier new&amp;#34; , monospace ; font-size: 16px ; line-height: 22px&quot;&gt;&lt;span style=&quot;color: #e06c75&quot;&gt;$mimoney&lt;/span&gt;&lt;span style=&quot;color: #56b6c2&quot;&gt;=floatval&lt;/span&gt;(&lt;span style=&quot;color: #e06c75&quot;&gt;$money&lt;/span&gt;)&lt;span style=&quot;color: #56b6c2&quot;&gt;-&lt;/span&gt;&lt;span style=&quot;color: #e06c75&quot;&gt;$diff&lt;/span&gt;;&lt;/div&gt;&lt;div style=&quot;color: rgb(171 , 178 , 191) ; background-color: rgb(40 , 44 , 52) ; font-family: &amp;#34;consolas&amp;#34; , &amp;#34;courier new&amp;#34; , monospace ; font-size: 16px ; line-height: 22px&quot;&gt;&lt;span style=&quot;color: #e06c75&quot;&gt;&lt;br&gt;&lt;/span&gt;&lt;/div&gt;&lt;div style=&quot;color: rgb(171 , 178 , 191) ; background-color: rgb(40 , 44 , 52) ; font-family: &amp;#34;consolas&amp;#34; , &amp;#34;courier new&amp;#34; , monospace ; font-size: 16px ; line-height: 22px&quot;&gt;&lt;span style=&quot;color: #e06c75&quot;&gt;$porcent&lt;/span&gt;&lt;span style=&quot;color: #56b6c2&quot;&gt;=&lt;/span&gt;&lt;span style=&quot;color: #98c379&quot;&gt;&quot;-&quot;&lt;/span&gt;;&lt;/div&gt;&lt;div style=&quot;color: rgb(171 , 178 , 191) ; background-color: rgb(40 , 44 , 52) ; font-family: &amp;#34;consolas&amp;#34; , &amp;#34;courier new&amp;#34; , monospace ; font-size: 16px ; line-height: 22px&quot;&gt;&lt;span style=&quot;color: #e06c75&quot;&gt;&lt;br&gt;&lt;/span&gt;&lt;/div&gt;&lt;div style=&quot;color: rgb(171 , 178 , 191) ; background-color: rgb(40 , 44 , 52) ; font-family: &amp;#34;consolas&amp;#34; , &amp;#34;courier new&amp;#34; , monospace ; font-size: 16px ; line-height: 22px&quot;&gt;&lt;span style=&quot;color: #e06c75&quot;&gt;$poramount&lt;/span&gt;&lt;span style=&quot;color: #56b6c2&quot;&gt;=&lt;/span&gt;&lt;span style=&quot;color: #e06c75&quot;&gt;$diff&lt;/span&gt;;&lt;/div&gt;" style="text;html=1;align=left;verticalAlign=middle;resizable=0;points=[];autosize=1;" parent="1" vertex="1">
          <mxGeometry x="-380" y="850" width="410" height="150" as="geometry" />
        </mxCell>
        <mxCell id="opEgY--enB1-h1R6FWiN-15" value="" style="endArrow=classic;html=1;exitX=0.429;exitY=0.989;exitDx=0;exitDy=0;exitPerimeter=0;entryX=0.099;entryY=-0.027;entryDx=0;entryDy=0;entryPerimeter=0;" parent="1" source="opEgY--enB1-h1R6FWiN-10" target="opEgY--enB1-h1R6FWiN-14" edge="1">
          <mxGeometry width="50" height="50" relative="1" as="geometry">
            <mxPoint x="-10" y="830" as="sourcePoint" />
            <mxPoint x="40" y="780" as="targetPoint" />
          </mxGeometry>
        </mxCell>
        <mxCell id="opEgY--enB1-h1R6FWiN-16" value="" style="endArrow=none;html=1;entryX=0;entryY=0.5;entryDx=0;entryDy=0;" parent="1" source="opEgY--enB1-h1R6FWiN-3" target="wRwia8m4Fj-E2qncx0wM-4" edge="1">
          <mxGeometry width="50" height="50" relative="1" as="geometry">
            <mxPoint x="-520" y="830" as="sourcePoint" />
            <mxPoint x="-470" y="780" as="targetPoint" />
          </mxGeometry>
        </mxCell>
        <mxCell id="opEgY--enB1-h1R6FWiN-17" value="" style="endArrow=classic;html=1;exitX=0.41;exitY=1.011;exitDx=0;exitDy=0;exitPerimeter=0;entryX=0.421;entryY=-0.011;entryDx=0;entryDy=0;entryPerimeter=0;" parent="1" source="opEgY--enB1-h1R6FWiN-3" target="opEgY--enB1-h1R6FWiN-1" edge="1">
          <mxGeometry width="50" height="50" relative="1" as="geometry">
            <mxPoint x="-520" y="830" as="sourcePoint" />
            <mxPoint x="-470" y="780" as="targetPoint" />
          </mxGeometry>
        </mxCell>
        <mxCell id="opEgY--enB1-h1R6FWiN-20" value="&lt;div style=&quot;line-height: 22px&quot;&gt;&lt;div style=&quot;color: rgb(171 , 178 , 191) ; background-color: rgb(40 , 44 , 52) ; font-family: &amp;#34;consolas&amp;#34; , &amp;#34;courier new&amp;#34; , monospace ; font-size: 16px ; line-height: 22px&quot;&gt;&lt;div&gt;&lt;span style=&quot;color: #e06c75&quot;&gt;$mitipo&lt;/span&gt;&lt;span style=&quot;color: #56b6c2&quot;&gt;=&lt;/span&gt;&lt;span style=&quot;color: #e06c75&quot;&gt;$tipo_cargo&lt;/span&gt;;&lt;span style=&quot;color: #7f848e ; font-style: italic&quot;&gt;//0=markup,&amp;nbsp;1=descuento&lt;/span&gt;&lt;/div&gt;&lt;div&gt;&lt;span style=&quot;color: #e06c75&quot;&gt;$mitipounidad&lt;/span&gt;&lt;span style=&quot;color: #56b6c2&quot;&gt;=&lt;/span&gt;&lt;span style=&quot;color: #e06c75&quot;&gt;$row&lt;/span&gt;[&lt;span style=&quot;color: #98c379&quot;&gt;&quot;tipo_unidad&quot;&lt;/span&gt;];&lt;span style=&quot;color: #7f848e ; font-style: italic&quot;&gt;//0=porcentaje,&amp;nbsp;1=fijo&lt;/span&gt;&lt;/div&gt;&lt;div&gt;&lt;span style=&quot;color: #e06c75&quot;&gt;$mimoneda&lt;/span&gt;&lt;span style=&quot;color: #56b6c2&quot;&gt;=&lt;/span&gt;&lt;span style=&quot;color: #e06c75&quot;&gt;$row&lt;/span&gt;[&lt;span style=&quot;color: #98c379&quot;&gt;&quot;moneda&quot;&lt;/span&gt;];&lt;/div&gt;&lt;div&gt;&lt;span style=&quot;color: #7f848e ; font-style: italic&quot;&gt;//$mifijo=$row[&quot;cantidad&quot;];&lt;/span&gt;&lt;/div&gt;&lt;div&gt;&lt;span style=&quot;color: #e06c75&quot;&gt;$miporc&lt;/span&gt;&lt;span style=&quot;color: #56b6c2&quot;&gt;=&lt;/span&gt;&lt;span style=&quot;color: #e06c75&quot;&gt;$row&lt;/span&gt;[&lt;span style=&quot;color: #98c379&quot;&gt;&quot;cantidad&quot;&lt;/span&gt;];&lt;/div&gt;&lt;/div&gt;&lt;/div&gt;" style="text;html=1;align=left;verticalAlign=middle;resizable=0;points=[];autosize=1;" parent="1" vertex="1">
          <mxGeometry x="-1000" y="455" width="510" height="110" as="geometry" />
        </mxCell>
        <mxCell id="opEgY--enB1-h1R6FWiN-21" value="EL SERVICE FEE ES LO MISMO, PERO SOLO LOGEA&amp;nbsp;" style="text;html=1;align=center;verticalAlign=middle;resizable=0;points=[];autosize=1;fillColor=#fff2cc;strokeColor=#d6b656;" parent="1" vertex="1">
          <mxGeometry x="-390" y="310" width="320" height="20" as="geometry" />
        </mxCell>
        <mxCell id="nO0bLM9SPIQuTMpQvS7K-1" value="" style="endArrow=classic;html=1;" parent="1" edge="1">
          <mxGeometry width="50" height="50" relative="1" as="geometry">
            <mxPoint x="860" y="670" as="sourcePoint" />
            <mxPoint x="910" y="620" as="targetPoint" />
          </mxGeometry>
        </mxCell>
        <mxCell id="nO0bLM9SPIQuTMpQvS7K-5" value="QUEDARME CON EL DE ORDEN MENOR SIEMPRE" style="text;html=1;align=center;verticalAlign=middle;resizable=0;points=[];autosize=1;fillColor=#fff2cc;strokeColor=#d6b656;" parent="1" vertex="1">
          <mxGeometry x="1140" y="260" width="300" height="20" as="geometry" />
        </mxCell>
        <mxCell id="nO0bLM9SPIQuTMpQvS7K-6" value="" style="endArrow=classic;html=1;exitX=0.538;exitY=1.167;exitDx=0;exitDy=0;exitPerimeter=0;" parent="1" source="nO0bLM9SPIQuTMpQvS7K-5" target="nO0bLM9SPIQuTMpQvS7K-2" edge="1">
          <mxGeometry width="50" height="50" relative="1" as="geometry">
            <mxPoint x="620" y="670" as="sourcePoint" />
            <mxPoint x="670" y="620" as="targetPoint" />
          </mxGeometry>
        </mxCell>
        <mxCell id="nO0bLM9SPIQuTMpQvS7K-7" value="" style="endArrow=classic;html=1;exitX=-0.022;exitY=0.5;exitDx=0;exitDy=0;exitPerimeter=0;" parent="1" source="nO0bLM9SPIQuTMpQvS7K-5" target="1ylVQQ3sh8P-H1glT6XM-4" edge="1">
          <mxGeometry width="50" height="50" relative="1" as="geometry">
            <mxPoint x="620" y="670" as="sourcePoint" />
            <mxPoint x="670" y="620" as="targetPoint" />
          </mxGeometry>
        </mxCell>
        <mxCell id="nO0bLM9SPIQuTMpQvS7K-19" value="" style="edgeStyle=orthogonalEdgeStyle;rounded=0;orthogonalLoop=1;jettySize=auto;html=1;fontColor=#FFFFFF;" parent="1" source="nO0bLM9SPIQuTMpQvS7K-10" target="nO0bLM9SPIQuTMpQvS7K-18" edge="1">
          <mxGeometry relative="1" as="geometry" />
        </mxCell>
        <mxCell id="nO0bLM9SPIQuTMpQvS7K-10" value="&lt;div style=&quot;background-color: rgb(40 , 44 , 52) ; font-family: &amp;#34;consolas&amp;#34; , &amp;#34;courier new&amp;#34; , monospace ; font-weight: normal ; font-size: 16px ; line-height: 22px&quot;&gt;&lt;font color=&quot;#c678dd&quot;&gt;if $tipo_unidad ==&amp;nbsp; 1&lt;/font&gt;&lt;/div&gt;" style="text;whiteSpace=wrap;html=1;" parent="1" vertex="1">
          <mxGeometry x="1360" y="700" width="190" height="30" as="geometry" />
        </mxCell>
        <mxCell id="nO0bLM9SPIQuTMpQvS7K-18" value="&lt;div style=&quot;background-color: rgb(40 , 44 , 52) ; font-family: &amp;#34;consolas&amp;#34; , &amp;#34;courier new&amp;#34; , monospace ; font-weight: normal ; font-size: 16px ; line-height: 22px&quot;&gt;&lt;div style=&quot;color: rgb(171 , 178 , 191) ; font-family: &amp;#34;consolas&amp;#34; , &amp;#34;courier new&amp;#34; , monospace ; line-height: 22px&quot;&gt;&lt;div&gt;&lt;span style=&quot;color: #e06c75&quot;&gt;$uno&lt;/span&gt;&lt;span style=&quot;color: #56b6c2&quot;&gt;=intval&lt;/span&gt;(&lt;span style=&quot;color: #56b6c2&quot;&gt;substr&lt;/span&gt;(&lt;span style=&quot;color: #e06c75&quot;&gt;$row3&lt;/span&gt;[&lt;span style=&quot;color: #98c379&quot;&gt;&quot;quepax&quot;&lt;/span&gt;],&lt;span style=&quot;color: #d19a66&quot;&gt;0&lt;/span&gt;,&lt;span style=&quot;color: #d19a66&quot;&gt;1&lt;/span&gt;));&lt;/div&gt;&lt;div&gt;&lt;span style=&quot;color: #e06c75&quot;&gt;$dos&lt;/span&gt;&lt;span style=&quot;color: #56b6c2&quot;&gt;=intval&lt;/span&gt;(&lt;span style=&quot;color: #56b6c2&quot;&gt;substr&lt;/span&gt;(&lt;span style=&quot;color: #e06c75&quot;&gt;$row3&lt;/span&gt;[&lt;span style=&quot;color: #98c379&quot;&gt;&quot;quepax&quot;&lt;/span&gt;],&lt;span style=&quot;color: #d19a66&quot;&gt;1&lt;/span&gt;,&lt;span style=&quot;color: #d19a66&quot;&gt;1&lt;/span&gt;));&lt;/div&gt;&lt;div&gt;&lt;span style=&quot;color: #e06c75&quot;&gt;$tres&lt;/span&gt;&lt;span style=&quot;color: #56b6c2&quot;&gt;=intval&lt;/span&gt;(&lt;span style=&quot;color: #56b6c2&quot;&gt;substr&lt;/span&gt;(&lt;span style=&quot;color: #e06c75&quot;&gt;$row3&lt;/span&gt;[&lt;span style=&quot;color: #98c379&quot;&gt;&quot;quepax&quot;&lt;/span&gt;],&lt;span style=&quot;color: #d19a66&quot;&gt;2&lt;/span&gt;,&lt;span style=&quot;color: #d19a66&quot;&gt;1&lt;/span&gt;));&lt;/div&gt;&lt;div&gt;&lt;br&gt;&lt;/div&gt;&lt;div&gt;line: 3094&lt;/div&gt;&lt;div&gt;&lt;br&gt;&lt;/div&gt;&lt;div&gt;&lt;div style=&quot;font-family: &amp;#34;consolas&amp;#34; , &amp;#34;courier new&amp;#34; , monospace ; line-height: 22px&quot;&gt;&lt;div&gt;&lt;span style=&quot;color: #e06c75&quot;&gt;$extracheck&lt;/span&gt;&lt;span style=&quot;color: #56b6c2&quot;&gt;=&lt;/span&gt;&lt;span style=&quot;color: #d19a66&quot;&gt;1&lt;/span&gt;;&lt;span style=&quot;color: #e06c75&quot;&gt;$suma&lt;/span&gt;&lt;span style=&quot;color: #56b6c2&quot;&gt;=&lt;/span&gt;&lt;span style=&quot;color: #98c379&quot;&gt;&quot;&quot;&lt;/span&gt;;&lt;/div&gt;&lt;div&gt;&lt;span style=&quot;color: #c678dd&quot;&gt;if&lt;/span&gt;&amp;nbsp;((&lt;span style=&quot;color: #e06c75&quot;&gt;$coin&lt;/span&gt;&lt;span style=&quot;color: #56b6c2&quot;&gt;==&lt;/span&gt;&lt;span style=&quot;color: #98c379&quot;&gt;&quot;ARS&quot;&lt;/span&gt;)&amp;nbsp;&lt;span style=&quot;color: #56b6c2&quot;&gt;and&lt;/span&gt;&amp;nbsp;(&lt;span style=&quot;color: #e06c75&quot;&gt;$currency&lt;/span&gt;&lt;span style=&quot;color: #56b6c2&quot;&gt;==&lt;/span&gt;&lt;span style=&quot;color: #98c379&quot;&gt;&quot;ARS&quot;&lt;/span&gt;))&lt;/div&gt;&lt;div&gt;{&lt;/div&gt;&lt;div&gt;&amp;nbsp;&amp;nbsp;&amp;nbsp;&amp;nbsp;&lt;span style=&quot;color: #e06c75&quot;&gt;$ca&lt;/span&gt;&lt;span style=&quot;color: #56b6c2&quot;&gt;=&lt;/span&gt;&lt;span style=&quot;color: #d19a66&quot;&gt;1&lt;/span&gt;;&lt;/div&gt;&lt;div&gt;&amp;nbsp;&amp;nbsp;&amp;nbsp;&amp;nbsp;&lt;span style=&quot;color: #e06c75&quot;&gt;$milog&lt;/span&gt;[&lt;span style=&quot;color: #e06c75&quot;&gt;$jk&lt;/span&gt;].=&lt;span style=&quot;color: #98c379&quot;&gt;&quot;&amp;nbsp;de&amp;nbsp;tipo&amp;nbsp;SUMA&amp;nbsp;FIJA&amp;nbsp;de&amp;nbsp;ARS&amp;nbsp;&quot;&lt;/span&gt;.&lt;span style=&quot;color: #e06c75&quot;&gt;$amount&lt;/span&gt;.&lt;span style=&quot;color: #98c379&quot;&gt;&quot;&amp;nbsp;sobre&amp;nbsp;el&amp;nbsp;tl&amp;nbsp;de&amp;nbsp;&quot;&lt;/span&gt;;&lt;/div&gt;&lt;div&gt;&amp;nbsp;&amp;nbsp;&amp;nbsp;&amp;nbsp;&lt;span style=&quot;color: #c678dd&quot;&gt;if&lt;/span&gt;&amp;nbsp;(&lt;span style=&quot;color: #e06c75&quot;&gt;$uno&lt;/span&gt;&lt;span style=&quot;color: #56b6c2&quot;&gt;==&lt;/span&gt;&lt;span style=&quot;color: #98c379&quot;&gt;&quot;1&quot;&lt;/span&gt;)&amp;nbsp;{&lt;span style=&quot;color: #e06c75&quot;&gt;$milog&lt;/span&gt;[&lt;span style=&quot;color: #e06c75&quot;&gt;$jk&lt;/span&gt;].=&lt;span style=&quot;color: #98c379&quot;&gt;&quot;&amp;nbsp;adultos&amp;nbsp;&quot;&lt;/span&gt;;}&lt;/div&gt;&lt;div&gt;&amp;nbsp;&amp;nbsp;&amp;nbsp;&amp;nbsp;&lt;span style=&quot;color: #c678dd&quot;&gt;if&lt;/span&gt;&amp;nbsp;(&lt;span style=&quot;color: #e06c75&quot;&gt;$dos&lt;/span&gt;&lt;span style=&quot;color: #56b6c2&quot;&gt;==&lt;/span&gt;&lt;span style=&quot;color: #98c379&quot;&gt;&quot;1&quot;&lt;/span&gt;)&amp;nbsp;{&lt;span style=&quot;color: #e06c75&quot;&gt;$milog&lt;/span&gt;[&lt;span style=&quot;color: #e06c75&quot;&gt;$jk&lt;/span&gt;].=&lt;span style=&quot;color: #98c379&quot;&gt;&quot;&amp;nbsp;ninos&amp;nbsp;&quot;&lt;/span&gt;;}&lt;/div&gt;&lt;div&gt;&amp;nbsp;&amp;nbsp;&amp;nbsp;&amp;nbsp;&lt;span style=&quot;color: #c678dd&quot;&gt;if&lt;/span&gt;&amp;nbsp;(&lt;span style=&quot;color: #e06c75&quot;&gt;$tres&lt;/span&gt;&lt;span style=&quot;color: #56b6c2&quot;&gt;==&lt;/span&gt;&lt;span style=&quot;color: #98c379&quot;&gt;&quot;1&quot;&lt;/span&gt;)&amp;nbsp;{&lt;span style=&quot;color: #e06c75&quot;&gt;$milog&lt;/span&gt;[&lt;span style=&quot;color: #e06c75&quot;&gt;$jk&lt;/span&gt;].=&lt;span style=&quot;color: #98c379&quot;&gt;&quot;&amp;nbsp;bebes&amp;nbsp;&quot;&lt;/span&gt;;}&lt;/div&gt;&lt;div&gt;&amp;nbsp;&amp;nbsp;&amp;nbsp;&amp;nbsp;&lt;span style=&quot;color: #e06c75&quot;&gt;$suma&lt;/span&gt;&lt;span style=&quot;color: #56b6c2&quot;&gt;=&lt;/span&gt;&lt;span style=&quot;color: #98c379&quot;&gt;&quot;ARS&quot;&lt;/span&gt;;&lt;/div&gt;&lt;div&gt;&amp;nbsp;&amp;nbsp;&amp;nbsp;&amp;nbsp;&lt;span style=&quot;color: #e06c75&quot;&gt;$monto&lt;/span&gt;&lt;span style=&quot;color: #56b6c2&quot;&gt;=&lt;/span&gt;&lt;span style=&quot;color: #e06c75&quot;&gt;$amount&lt;/span&gt;&lt;span style=&quot;color: #56b6c2&quot;&gt;*&lt;/span&gt;((&lt;span style=&quot;color: #e06c75&quot;&gt;$_SESSION&lt;/span&gt;[&lt;span style=&quot;color: #98c379&quot;&gt;&quot;adultos&quot;&lt;/span&gt;]&lt;span style=&quot;color: #56b6c2&quot;&gt;*&lt;/span&gt;&lt;span style=&quot;color: #e06c75&quot;&gt;$uno&lt;/span&gt;)&lt;span style=&quot;color: #56b6c2&quot;&gt;+&lt;/span&gt;(&lt;span style=&quot;color: #e06c75&quot;&gt;$_SESSION&lt;/span&gt;[&lt;span style=&quot;color: #98c379&quot;&gt;&quot;ninos&quot;&lt;/span&gt;]&lt;span style=&quot;color: #56b6c2&quot;&gt;*&lt;/span&gt;&lt;span style=&quot;color: #e06c75&quot;&gt;$dos&lt;/span&gt;)&lt;span style=&quot;color: #56b6c2&quot;&gt;+&lt;/span&gt;(&lt;span style=&quot;color: #e06c75&quot;&gt;$_SESSION&lt;/span&gt;[&lt;span style=&quot;color: #98c379&quot;&gt;&quot;infantes&quot;&lt;/span&gt;]&lt;span style=&quot;color: #56b6c2&quot;&gt;*&lt;/span&gt;&lt;span style=&quot;color: #e06c75&quot;&gt;$tres&lt;/span&gt;));&lt;/div&gt;&lt;div&gt;&amp;nbsp;&amp;nbsp;&amp;nbsp;&amp;nbsp;&lt;span style=&quot;color: #e06c75&quot;&gt;$yyy&lt;/span&gt;&lt;span style=&quot;color: #56b6c2&quot;&gt;=&lt;/span&gt;&lt;span style=&quot;color: #e06c75&quot;&gt;$amount&lt;/span&gt;;&lt;/div&gt;&lt;div&gt;&amp;nbsp;&amp;nbsp;&amp;nbsp;&amp;nbsp;&lt;span style=&quot;color: #7f848e ; font-style: italic&quot;&gt;//$monto=number_format(floatval($monto),2);&lt;/span&gt;&lt;/div&gt;&lt;div&gt;}&lt;/div&gt;&lt;div&gt;&lt;span style=&quot;color: #7f848e ; font-style: italic&quot;&gt;//Si&amp;nbsp;el&amp;nbsp;resultado&amp;nbsp;es&amp;nbsp;USD&amp;nbsp;y&amp;nbsp;CURRENCY&amp;nbsp;es&amp;nbsp;USD&amp;nbsp;aplicar&lt;/span&gt;&lt;/div&gt;&lt;div&gt;&lt;span style=&quot;color: #c678dd&quot;&gt;if&lt;/span&gt;&amp;nbsp;((&lt;span style=&quot;color: #e06c75&quot;&gt;$coin&lt;/span&gt;&lt;span style=&quot;color: #56b6c2&quot;&gt;==&lt;/span&gt;&lt;span style=&quot;color: #98c379&quot;&gt;&quot;USD&quot;&lt;/span&gt;)&amp;nbsp;&lt;span style=&quot;color: #56b6c2&quot;&gt;and&lt;/span&gt;&amp;nbsp;(&lt;span style=&quot;color: #e06c75&quot;&gt;$currency&lt;/span&gt;&lt;span style=&quot;color: #56b6c2&quot;&gt;==&lt;/span&gt;&lt;span style=&quot;color: #98c379&quot;&gt;&quot;USD&quot;&lt;/span&gt;))&lt;/div&gt;&lt;div&gt;{&lt;/div&gt;&lt;div&gt;&amp;nbsp;&amp;nbsp;&amp;nbsp;&amp;nbsp;&lt;span style=&quot;color: #e06c75&quot;&gt;$ca&lt;/span&gt;&lt;span style=&quot;color: #56b6c2&quot;&gt;=&lt;/span&gt;&lt;span style=&quot;color: #d19a66&quot;&gt;1&lt;/span&gt;;&lt;/div&gt;&lt;div&gt;&amp;nbsp;&amp;nbsp;&amp;nbsp;&amp;nbsp;&lt;span style=&quot;color: #e06c75&quot;&gt;$monto&lt;/span&gt;&lt;span style=&quot;color: #56b6c2&quot;&gt;=&lt;/span&gt;&lt;span style=&quot;color: #e06c75&quot;&gt;$amount&lt;/span&gt;&lt;span style=&quot;color: #56b6c2&quot;&gt;*&lt;/span&gt;((&lt;span style=&quot;color: #e06c75&quot;&gt;$_SESSION&lt;/span&gt;[&lt;span style=&quot;color: #98c379&quot;&gt;&quot;adultos&quot;&lt;/span&gt;]&lt;span style=&quot;color: #56b6c2&quot;&gt;*&lt;/span&gt;&lt;span style=&quot;color: #e06c75&quot;&gt;$uno&lt;/span&gt;)&lt;span style=&quot;color: #56b6c2&quot;&gt;+&lt;/span&gt;(&lt;span style=&quot;color: #e06c75&quot;&gt;$_SESSION&lt;/span&gt;[&lt;span style=&quot;color: #98c379&quot;&gt;&quot;ninos&quot;&lt;/span&gt;]&lt;span style=&quot;color: #56b6c2&quot;&gt;*&lt;/span&gt;&lt;span style=&quot;color: #e06c75&quot;&gt;$dos&lt;/span&gt;)&lt;span style=&quot;color: #56b6c2&quot;&gt;+&lt;/span&gt;(&lt;span style=&quot;color: #e06c75&quot;&gt;$_SESSION&lt;/span&gt;[&lt;span style=&quot;color: #98c379&quot;&gt;&quot;infantes&quot;&lt;/span&gt;]&lt;span style=&quot;color: #56b6c2&quot;&gt;*&lt;/span&gt;&lt;span style=&quot;color: #e06c75&quot;&gt;$tres&lt;/span&gt;));&lt;/div&gt;&lt;div&gt;&amp;nbsp;&amp;nbsp;&amp;nbsp;&amp;nbsp;&lt;span style=&quot;color: #e06c75&quot;&gt;$milog&lt;/span&gt;[&lt;span style=&quot;color: #e06c75&quot;&gt;$jk&lt;/span&gt;].=&lt;span style=&quot;color: #98c379&quot;&gt;&quot;&amp;nbsp;de&amp;nbsp;tipo&amp;nbsp;SUMA&amp;nbsp;FIJA&amp;nbsp;de&amp;nbsp;USD&amp;nbsp;&quot;&lt;/span&gt;.&lt;span style=&quot;color: #e06c75&quot;&gt;$amount&lt;/span&gt;.&lt;span style=&quot;color: #98c379&quot;&gt;&quot;&amp;nbsp;sobre&amp;nbsp;el&amp;nbsp;tl&amp;nbsp;de&amp;nbsp;&quot;&lt;/span&gt;;&lt;/div&gt;&lt;div&gt;&amp;nbsp;&amp;nbsp;&amp;nbsp;&amp;nbsp;&lt;span style=&quot;color: #c678dd&quot;&gt;if&lt;/span&gt;&amp;nbsp;(&lt;span style=&quot;color: #e06c75&quot;&gt;$uno&lt;/span&gt;&lt;span style=&quot;color: #56b6c2&quot;&gt;==&lt;/span&gt;&lt;span style=&quot;color: #98c379&quot;&gt;&quot;1&quot;&lt;/span&gt;)&amp;nbsp;{&lt;span style=&quot;color: #e06c75&quot;&gt;$milog&lt;/span&gt;[&lt;span style=&quot;color: #e06c75&quot;&gt;$jk&lt;/span&gt;].=&lt;span style=&quot;color: #98c379&quot;&gt;&quot;&amp;nbsp;adultos&amp;nbsp;&quot;&lt;/span&gt;;}&lt;/div&gt;&lt;div&gt;&amp;nbsp;&amp;nbsp;&amp;nbsp;&amp;nbsp;&lt;span style=&quot;color: #c678dd&quot;&gt;if&lt;/span&gt;&amp;nbsp;(&lt;span style=&quot;color: #e06c75&quot;&gt;$dos&lt;/span&gt;&lt;span style=&quot;color: #56b6c2&quot;&gt;==&lt;/span&gt;&lt;span style=&quot;color: #98c379&quot;&gt;&quot;1&quot;&lt;/span&gt;)&amp;nbsp;{&lt;span style=&quot;color: #e06c75&quot;&gt;$milog&lt;/span&gt;[&lt;span style=&quot;color: #e06c75&quot;&gt;$jk&lt;/span&gt;].=&lt;span style=&quot;color: #98c379&quot;&gt;&quot;&amp;nbsp;ninos&amp;nbsp;&quot;&lt;/span&gt;;}&lt;/div&gt;&lt;div&gt;&amp;nbsp;&amp;nbsp;&amp;nbsp;&amp;nbsp;&lt;span style=&quot;color: #c678dd&quot;&gt;if&lt;/span&gt;&amp;nbsp;(&lt;span style=&quot;color: #e06c75&quot;&gt;$tres&lt;/span&gt;&lt;span style=&quot;color: #56b6c2&quot;&gt;==&lt;/span&gt;&lt;span style=&quot;color: #98c379&quot;&gt;&quot;1&quot;&lt;/span&gt;)&amp;nbsp;{&lt;span style=&quot;color: #e06c75&quot;&gt;$milog&lt;/span&gt;[&lt;span style=&quot;color: #e06c75&quot;&gt;$jk&lt;/span&gt;].=&lt;span style=&quot;color: #98c379&quot;&gt;&quot;&amp;nbsp;bebes&amp;nbsp;&quot;&lt;/span&gt;;}&lt;/div&gt;&lt;div&gt;&amp;nbsp;&amp;nbsp;&amp;nbsp;&amp;nbsp;&lt;span style=&quot;color: #e06c75&quot;&gt;$suma&lt;/span&gt;&lt;span style=&quot;color: #56b6c2&quot;&gt;=&lt;/span&gt;&lt;span style=&quot;color: #98c379&quot;&gt;&quot;USD&quot;&lt;/span&gt;;&lt;/div&gt;&lt;div&gt;&amp;nbsp;&amp;nbsp;&amp;nbsp;&amp;nbsp;&lt;span style=&quot;color: #e06c75&quot;&gt;$zzz&lt;/span&gt;&lt;span style=&quot;color: #56b6c2&quot;&gt;=&lt;/span&gt;&lt;span style=&quot;color: #e06c75&quot;&gt;$amount&lt;/span&gt;;&lt;/div&gt;&lt;div&gt;&amp;nbsp;&amp;nbsp;&amp;nbsp;&amp;nbsp;&lt;span style=&quot;color: #7f848e ; font-style: italic&quot;&gt;//$monto=number_format(floatval($monto),2);&lt;/span&gt;&lt;/div&gt;&lt;div&gt;}&lt;/div&gt;&lt;/div&gt;&lt;/div&gt;&lt;div&gt;&lt;br&gt;&lt;/div&gt;&lt;div&gt;&lt;div style=&quot;font-family: &amp;#34;consolas&amp;#34; , &amp;#34;courier new&amp;#34; , monospace ; line-height: 22px&quot;&gt;&lt;div&gt;&lt;span style=&quot;color: #c678dd&quot;&gt;if&lt;/span&gt;&amp;nbsp;(&lt;span style=&quot;color: #e06c75&quot;&gt;$ca&lt;/span&gt;&lt;span style=&quot;color: #56b6c2&quot;&gt;==&lt;/span&gt;&lt;span style=&quot;color: #d19a66&quot;&gt;0&lt;/span&gt;)&lt;/div&gt;&lt;div&gt;{&lt;/div&gt;&lt;div&gt;&amp;nbsp;&amp;nbsp;&amp;nbsp;&amp;nbsp;&lt;span style=&quot;color: #e06c75&quot;&gt;$milog&lt;/span&gt;[&lt;span style=&quot;color: #e06c75&quot;&gt;$jk&lt;/span&gt;].=&lt;span style=&quot;color: #98c379&quot;&gt;&quot;&amp;nbsp;nada,&amp;nbsp;porque&amp;nbsp;la&amp;nbsp;moneda&amp;nbsp;definida&amp;nbsp;en&amp;nbsp;el&amp;nbsp;service&amp;nbsp;fee&amp;nbsp;no&amp;nbsp;coincide&amp;nbsp;con&amp;nbsp;la&amp;nbsp;devolucion&amp;nbsp;del&amp;nbsp;sistema.&amp;nbsp;Se&amp;nbsp;aplicara&amp;nbsp;el&amp;nbsp;cargo&amp;nbsp;por&amp;nbsp;defecto&amp;nbsp;de&amp;nbsp;la&amp;nbsp;agencia.&quot;&lt;/span&gt;;&lt;/div&gt;&lt;div&gt;&amp;nbsp;&amp;nbsp;&amp;nbsp;&amp;nbsp;&lt;span style=&quot;color: #e06c75&quot;&gt;$def&lt;/span&gt;&lt;span style=&quot;color: #56b6c2&quot;&gt;=&lt;/span&gt;&lt;span style=&quot;color: #98c379&quot;&gt;&quot;si&quot;&lt;/span&gt;;&lt;/div&gt;&lt;div&gt;}&lt;/div&gt;&lt;/div&gt;&lt;/div&gt;&lt;div&gt;&lt;br&gt;&lt;/div&gt;&lt;/div&gt;&lt;/div&gt;" style="text;whiteSpace=wrap;html=1;" parent="1" vertex="1">
          <mxGeometry x="1400" y="760" width="1420" height="870" as="geometry" />
        </mxCell>
        <mxCell id="nO0bLM9SPIQuTMpQvS7K-11" value="" style="endArrow=classic;html=1;" parent="1" edge="1">
          <mxGeometry width="50" height="50" relative="1" as="geometry">
            <mxPoint x="900" y="670" as="sourcePoint" />
            <mxPoint x="950" y="620" as="targetPoint" />
          </mxGeometry>
        </mxCell>
        <mxCell id="nO0bLM9SPIQuTMpQvS7K-16" value="&lt;span style=&quot;&quot;&gt;$tarifa = le cargo el porcentaje&lt;br&gt;&amp;nbsp;del $row[&quot;cantidad&quot;]&lt;/span&gt;" style="text;html=1;align=left;verticalAlign=middle;resizable=0;points=[];autosize=1;labelBackgroundColor=#1A1A1A;fontColor=#FFFFFF;" parent="1" vertex="1">
          <mxGeometry x="926" y="813" width="180" height="30" as="geometry" />
        </mxCell>
        <mxCell id="Y182MtOqRAXLIOEHWJ8o-2" value="" style="edgeStyle=orthogonalEdgeStyle;rounded=0;orthogonalLoop=1;jettySize=auto;html=1;" edge="1" parent="1" source="nCxaHRIKBPf5B0j2PniW-1" target="Y182MtOqRAXLIOEHWJ8o-1">
          <mxGeometry relative="1" as="geometry" />
        </mxCell>
        <mxCell id="nCxaHRIKBPf5B0j2PniW-1" value="&lt;div style=&quot;color: rgb(171 , 178 , 191) ; background-color: rgb(40 , 44 , 52) ; font-family: &amp;quot;consolas&amp;quot; , &amp;quot;courier new&amp;quot; , monospace ; font-size: 16px ; line-height: 22px&quot;&gt;&lt;div&gt;&lt;span style=&quot;color: #c678dd&quot;&gt;if&lt;/span&gt;&amp;nbsp;(&lt;span style=&quot;color: #e06c75&quot;&gt;$extracheck&lt;/span&gt;&lt;span style=&quot;color: #56b6c2&quot;&gt;==&lt;/span&gt;&lt;span style=&quot;color: #d19a66&quot;&gt;1&lt;/span&gt;)&lt;span style=&quot;color: #7f848e ; font-style: italic&quot;&gt;//aplico&amp;nbsp;un&amp;nbsp;cargo&amp;nbsp;de&amp;nbsp;la&amp;nbsp;regla.&amp;nbsp;Revisemos&amp;nbsp;si&amp;nbsp;el&amp;nbsp;de&amp;nbsp;la&amp;nbsp;agencia&amp;nbsp;no&amp;nbsp;es&amp;nbsp;superior&lt;/span&gt;&lt;/div&gt;&lt;div&gt;{&lt;/div&gt;&lt;div&gt;&amp;nbsp;&amp;nbsp;&amp;nbsp;&amp;nbsp;&lt;span style=&quot;color: #7f848e ; font-style: italic&quot;&gt;//Quizas&amp;nbsp;aplico&amp;nbsp;un&amp;nbsp;cargo&amp;nbsp;de&amp;nbsp;gestion&amp;nbsp;de&amp;nbsp;la&amp;nbsp;tarifa.&amp;nbsp;Pero&amp;nbsp;debemos&amp;nbsp;revisar&amp;nbsp;si&amp;nbsp;el&amp;nbsp;de&amp;nbsp;la&amp;nbsp;agencia&amp;nbsp;no&amp;nbsp;es&amp;nbsp;mayor.&amp;nbsp;Si&amp;nbsp;lo&amp;nbsp;es,&amp;nbsp;debemos&amp;nbsp;aplicar&amp;nbsp;ese.&lt;/span&gt;&lt;/div&gt;&lt;div&gt;&amp;nbsp;&amp;nbsp;&amp;nbsp;&amp;nbsp;&lt;span style=&quot;color: #e06c75&quot;&gt;$cg&lt;/span&gt;&lt;span style=&quot;color: #56b6c2&quot;&gt;=&lt;/span&gt;&lt;span style=&quot;color: #e06c75&quot;&gt;$row2&lt;/span&gt;[&lt;span style=&quot;color: #98c379&quot;&gt;&quot;cargo_gestion&quot;&lt;/span&gt;];&lt;/div&gt;&lt;div&gt;&amp;nbsp;&amp;nbsp;&amp;nbsp;&amp;nbsp;&lt;span style=&quot;color: #e06c75&quot;&gt;$tipo&lt;/span&gt;&lt;span style=&quot;color: #56b6c2&quot;&gt;=&lt;/span&gt;&lt;span style=&quot;color: #e06c75&quot;&gt;$row2&lt;/span&gt;[&lt;span style=&quot;color: #98c379&quot;&gt;&quot;tipo_cargo_gestion&quot;&lt;/span&gt;];&lt;/div&gt;&lt;div&gt;&amp;nbsp;&amp;nbsp;&amp;nbsp;&amp;nbsp;&lt;span style=&quot;color: #c678dd&quot;&gt;if&lt;/span&gt;&amp;nbsp;(&lt;span style=&quot;color: #e06c75&quot;&gt;$tipo&lt;/span&gt;&lt;span style=&quot;color: #56b6c2&quot;&gt;==&lt;/span&gt;&lt;span style=&quot;color: #d19a66&quot;&gt;1&lt;/span&gt;)&lt;span style=&quot;color: #7f848e ; font-style: italic&quot;&gt;//%&lt;/span&gt;&lt;/div&gt;&lt;div&gt;&amp;nbsp;&amp;nbsp;&amp;nbsp;&amp;nbsp;{&lt;/div&gt;&lt;div&gt;&amp;nbsp;&amp;nbsp;&amp;nbsp;&amp;nbsp;&amp;nbsp;&amp;nbsp;&amp;nbsp;&amp;nbsp;&lt;span style=&quot;color: #7f848e ; font-style: italic&quot;&gt;//echo&amp;nbsp;&quot;**************************&quot;.$row2[&quot;porcentaje_cargo_gestion&quot;].&quot;*******xxx=&quot;.$xxx.&quot;******tipo=&quot;.$tipo;&lt;/span&gt;&lt;/div&gt;&lt;div&gt;&amp;nbsp;&amp;nbsp;&amp;nbsp;&amp;nbsp;&amp;nbsp;&amp;nbsp;&amp;nbsp;&amp;nbsp;&lt;span style=&quot;color: #c678dd&quot;&gt;if&lt;/span&gt;&amp;nbsp;(&lt;span style=&quot;color: #e06c75&quot;&gt;$row2&lt;/span&gt;[&lt;span style=&quot;color: #98c379&quot;&gt;&quot;porcentaje_cargo_gestion&quot;&lt;/span&gt;]&lt;span style=&quot;color: #56b6c2&quot;&gt;&amp;gt;&lt;/span&gt;&lt;span style=&quot;color: #e06c75&quot;&gt;$xxx&lt;/span&gt;)&lt;/div&gt;&lt;div&gt;&amp;nbsp;&amp;nbsp;&amp;nbsp;&amp;nbsp;&amp;nbsp;&amp;nbsp;&amp;nbsp;&amp;nbsp;{&lt;/div&gt;&lt;div&gt;&amp;nbsp;&amp;nbsp;&amp;nbsp;&amp;nbsp;&amp;nbsp;&amp;nbsp;&amp;nbsp;&amp;nbsp;&amp;nbsp;&amp;nbsp;&amp;nbsp;&amp;nbsp;&lt;span style=&quot;color: #7f848e ; font-style: italic&quot;&gt;//&lt;/span&gt;&lt;/div&gt;&lt;div&gt;&amp;nbsp;&amp;nbsp;&amp;nbsp;&amp;nbsp;&amp;nbsp;&amp;nbsp;&amp;nbsp;&amp;nbsp;&amp;nbsp;&amp;nbsp;&amp;nbsp;&amp;nbsp;&lt;span style=&quot;color: #e06c75&quot;&gt;$def&lt;/span&gt;&lt;span style=&quot;color: #56b6c2&quot;&gt;=&lt;/span&gt;&lt;span style=&quot;color: #98c379&quot;&gt;&quot;si&quot;&lt;/span&gt;;&lt;span style=&quot;color: #7f848e ; font-style: italic&quot;&gt;//Usar&amp;nbsp;el&amp;nbsp;porcentaje&amp;nbsp;de&amp;nbsp;la&amp;nbsp;agencia,&amp;nbsp;ya&amp;nbsp;que&amp;nbsp;es&amp;nbsp;mayor&lt;/span&gt;&lt;/div&gt;&lt;div&gt;&amp;nbsp;&amp;nbsp;&amp;nbsp;&amp;nbsp;&amp;nbsp;&amp;nbsp;&amp;nbsp;&amp;nbsp;&amp;nbsp;&amp;nbsp;&amp;nbsp;&amp;nbsp;&lt;span style=&quot;color: #e06c75&quot;&gt;$milog&lt;/span&gt;[&lt;span style=&quot;color: #e06c75&quot;&gt;$jk&lt;/span&gt;].=&lt;span style=&quot;color: #98c379&quot;&gt;&quot;&lt;/span&gt;&lt;span style=&quot;color: #56b6c2&quot;&gt;\n\r&lt;/span&gt;&lt;span style=&quot;color: #98c379&quot;&gt;El&amp;nbsp;cargo&amp;nbsp;de&amp;nbsp;gestion&amp;nbsp;en&amp;nbsp;PORCENTAJE&amp;nbsp;de&amp;nbsp;la&amp;nbsp;agencia&amp;nbsp;es&amp;nbsp;mayor&amp;nbsp;al&amp;nbsp;de&amp;nbsp;la&amp;nbsp;regla,&amp;nbsp;por&amp;nbsp;lo&amp;nbsp;tanto,&amp;nbsp;se&amp;nbsp;anula&amp;nbsp;la&amp;nbsp;aplicacion&amp;nbsp;del&amp;nbsp;fee&amp;nbsp;de&amp;nbsp;la&amp;nbsp;regla&amp;nbsp;y&amp;nbsp;en&amp;nbsp;vez&amp;nbsp;aplicaremos&amp;nbsp;el&amp;nbsp;que&amp;nbsp;esta&amp;nbsp;definido&amp;nbsp;por&amp;nbsp;la&amp;nbsp;agencia,&amp;nbsp;que&amp;nbsp;es&amp;nbsp;mayor.&quot;&lt;/span&gt;;&lt;/div&gt;&lt;div&gt;&amp;nbsp;&amp;nbsp;&amp;nbsp;&amp;nbsp;&amp;nbsp;&amp;nbsp;&amp;nbsp;&amp;nbsp;&amp;nbsp;&amp;nbsp;&amp;nbsp;&amp;nbsp;&lt;span style=&quot;color: #7f848e ; font-style: italic&quot;&gt;//$miregla=&quot;&quot;;&lt;/span&gt;&lt;/div&gt;&lt;div&gt;&amp;nbsp;&amp;nbsp;&amp;nbsp;&amp;nbsp;&amp;nbsp;&amp;nbsp;&amp;nbsp;&amp;nbsp;}&lt;/div&gt;&lt;div&gt;&amp;nbsp;&amp;nbsp;&amp;nbsp;&amp;nbsp;}&lt;/div&gt;&lt;div&gt;&amp;nbsp;&amp;nbsp;&amp;nbsp;&amp;nbsp;&lt;span style=&quot;color: #c678dd&quot;&gt;if&lt;/span&gt;&amp;nbsp;(&lt;span style=&quot;color: #e06c75&quot;&gt;$tipo&lt;/span&gt;&lt;span style=&quot;color: #56b6c2&quot;&gt;==&lt;/span&gt;&lt;span style=&quot;color: #d19a66&quot;&gt;0&lt;/span&gt;)&lt;span style=&quot;color: #7f848e ; font-style: italic&quot;&gt;//fijo&lt;/span&gt;&lt;/div&gt;&lt;div&gt;&amp;nbsp;&amp;nbsp;&amp;nbsp;&amp;nbsp;{&lt;/div&gt;&lt;div&gt;&amp;nbsp;&amp;nbsp;&amp;nbsp;&amp;nbsp;&amp;nbsp;&amp;nbsp;&amp;nbsp;&amp;nbsp;&lt;/div&gt;&lt;div&gt;&amp;nbsp;&amp;nbsp;&amp;nbsp;&amp;nbsp;&amp;nbsp;&amp;nbsp;&amp;nbsp;&amp;nbsp;&lt;span style=&quot;color: #c678dd&quot;&gt;if&lt;/span&gt;&amp;nbsp;((&lt;span style=&quot;color: #e06c75&quot;&gt;$suma&lt;/span&gt;&lt;span style=&quot;color: #56b6c2&quot;&gt;==&lt;/span&gt;&lt;span style=&quot;color: #98c379&quot;&gt;&quot;ARS&quot;&lt;/span&gt;)&amp;nbsp;&lt;span style=&quot;color: #56b6c2&quot;&gt;and&lt;/span&gt;&amp;nbsp;(&lt;span style=&quot;color: #e06c75&quot;&gt;$row2&lt;/span&gt;[&lt;span style=&quot;color: #98c379&quot;&gt;&quot;pesos_cargo_gestion&quot;&lt;/span&gt;]&lt;span style=&quot;color: #56b6c2&quot;&gt;&amp;gt;&lt;/span&gt;&lt;span style=&quot;color: #e06c75&quot;&gt;$yyy&lt;/span&gt;))&lt;/div&gt;&lt;div&gt;&amp;nbsp;&amp;nbsp;&amp;nbsp;&amp;nbsp;&amp;nbsp;&amp;nbsp;&amp;nbsp;&amp;nbsp;{&lt;/div&gt;&lt;div&gt;&amp;nbsp;&amp;nbsp;&amp;nbsp;&amp;nbsp;&amp;nbsp;&amp;nbsp;&amp;nbsp;&amp;nbsp;&amp;nbsp;&amp;nbsp;&amp;nbsp;&amp;nbsp;&lt;span style=&quot;color: #7f848e ; font-style: italic&quot;&gt;//Resultado&amp;nbsp;en&amp;nbsp;$&amp;nbsp;y&amp;nbsp;fijo&amp;nbsp;de&amp;nbsp;la&amp;nbsp;agencia&amp;nbsp;en&amp;nbsp;$&amp;nbsp;es&amp;nbsp;mayor&amp;nbsp;al&amp;nbsp;de&amp;nbsp;la&amp;nbsp;regla&lt;/span&gt;&lt;/div&gt;&lt;div&gt;&amp;nbsp;&amp;nbsp;&amp;nbsp;&amp;nbsp;&amp;nbsp;&amp;nbsp;&amp;nbsp;&amp;nbsp;&amp;nbsp;&amp;nbsp;&amp;nbsp;&amp;nbsp;&lt;span style=&quot;color: #e06c75&quot;&gt;$def&lt;/span&gt;&lt;span style=&quot;color: #56b6c2&quot;&gt;=&lt;/span&gt;&lt;span style=&quot;color: #98c379&quot;&gt;&quot;si&quot;&lt;/span&gt;;&lt;/div&gt;&lt;div&gt;&amp;nbsp;&amp;nbsp;&amp;nbsp;&amp;nbsp;&amp;nbsp;&amp;nbsp;&amp;nbsp;&amp;nbsp;&amp;nbsp;&amp;nbsp;&amp;nbsp;&amp;nbsp;&lt;span style=&quot;color: #e06c75&quot;&gt;$milog&lt;/span&gt;[&lt;span style=&quot;color: #e06c75&quot;&gt;$jk&lt;/span&gt;].=&lt;span style=&quot;color: #98c379&quot;&gt;&quot;&lt;/span&gt;&lt;span style=&quot;color: #56b6c2&quot;&gt;\n\r&lt;/span&gt;&lt;span style=&quot;color: #98c379&quot;&gt;El&amp;nbsp;cargo&amp;nbsp;de&amp;nbsp;gestion&amp;nbsp;en&amp;nbsp;PESOS&amp;nbsp;de&amp;nbsp;la&amp;nbsp;agencia&amp;nbsp;es&amp;nbsp;mayor&amp;nbsp;al&amp;nbsp;de&amp;nbsp;la&amp;nbsp;regla,&amp;nbsp;por&amp;nbsp;lo&amp;nbsp;tanto,&amp;nbsp;se&amp;nbsp;anula&amp;nbsp;la&amp;nbsp;aplicacion&amp;nbsp;del&amp;nbsp;fee&amp;nbsp;de&amp;nbsp;la&amp;nbsp;regla&amp;nbsp;y&amp;nbsp;en&amp;nbsp;vez&amp;nbsp;aplicaremos&amp;nbsp;el&amp;nbsp;que&amp;nbsp;esta&amp;nbsp;definido&amp;nbsp;por&amp;nbsp;la&amp;nbsp;agencia,&amp;nbsp;que&amp;nbsp;es&amp;nbsp;mayor.&quot;&lt;/span&gt;;&lt;/div&gt;&lt;div&gt;&amp;nbsp;&amp;nbsp;&amp;nbsp;&amp;nbsp;&amp;nbsp;&amp;nbsp;&amp;nbsp;&amp;nbsp;&amp;nbsp;&amp;nbsp;&amp;nbsp;&amp;nbsp;&lt;span style=&quot;color: #7f848e ; font-style: italic&quot;&gt;//$miregla=&quot;&quot;;&lt;/span&gt;&lt;/div&gt;&lt;div&gt;&amp;nbsp;&amp;nbsp;&amp;nbsp;&amp;nbsp;&amp;nbsp;&amp;nbsp;&amp;nbsp;&amp;nbsp;}&lt;/div&gt;&lt;div&gt;&amp;nbsp;&amp;nbsp;&amp;nbsp;&amp;nbsp;&amp;nbsp;&amp;nbsp;&amp;nbsp;&amp;nbsp;&lt;span style=&quot;color: #c678dd&quot;&gt;if&lt;/span&gt;&amp;nbsp;((&lt;span style=&quot;color: #e06c75&quot;&gt;$suma&lt;/span&gt;&lt;span style=&quot;color: #56b6c2&quot;&gt;==&lt;/span&gt;&lt;span style=&quot;color: #98c379&quot;&gt;&quot;USD&quot;&lt;/span&gt;)&amp;nbsp;&lt;span style=&quot;color: #56b6c2&quot;&gt;and&lt;/span&gt;&amp;nbsp;(&lt;span style=&quot;color: #e06c75&quot;&gt;$row2&lt;/span&gt;[&lt;span style=&quot;color: #98c379&quot;&gt;&quot;dolares_cargo_gestion&quot;&lt;/span&gt;]&lt;span style=&quot;color: #56b6c2&quot;&gt;&amp;gt;&lt;/span&gt;&lt;span style=&quot;color: #e06c75&quot;&gt;$zzz&lt;/span&gt;))&lt;/div&gt;&lt;div&gt;&amp;nbsp;&amp;nbsp;&amp;nbsp;&amp;nbsp;&amp;nbsp;&amp;nbsp;&amp;nbsp;&amp;nbsp;{&lt;/div&gt;&lt;div&gt;&amp;nbsp;&amp;nbsp;&amp;nbsp;&amp;nbsp;&amp;nbsp;&amp;nbsp;&amp;nbsp;&amp;nbsp;&amp;nbsp;&amp;nbsp;&amp;nbsp;&amp;nbsp;&lt;span style=&quot;color: #7f848e ; font-style: italic&quot;&gt;//Resultado&amp;nbsp;en&amp;nbsp;$&amp;nbsp;y&amp;nbsp;fijo&amp;nbsp;de&amp;nbsp;la&amp;nbsp;agencia&amp;nbsp;en&amp;nbsp;USD&amp;nbsp;es&amp;nbsp;mayor&amp;nbsp;al&amp;nbsp;de&amp;nbsp;la&amp;nbsp;regla&lt;/span&gt;&lt;/div&gt;&lt;div&gt;&amp;nbsp;&amp;nbsp;&amp;nbsp;&amp;nbsp;&amp;nbsp;&amp;nbsp;&amp;nbsp;&amp;nbsp;&amp;nbsp;&amp;nbsp;&amp;nbsp;&amp;nbsp;&lt;span style=&quot;color: #e06c75&quot;&gt;$def&lt;/span&gt;&lt;span style=&quot;color: #56b6c2&quot;&gt;=&lt;/span&gt;&lt;span style=&quot;color: #98c379&quot;&gt;&quot;si&quot;&lt;/span&gt;;&lt;/div&gt;&lt;div&gt;&amp;nbsp;&amp;nbsp;&amp;nbsp;&amp;nbsp;&amp;nbsp;&amp;nbsp;&amp;nbsp;&amp;nbsp;&amp;nbsp;&amp;nbsp;&amp;nbsp;&amp;nbsp;&lt;span style=&quot;color: #7f848e ; font-style: italic&quot;&gt;//$miregla=&quot;&quot;;&lt;/span&gt;&lt;/div&gt;&lt;div&gt;&amp;nbsp;&amp;nbsp;&amp;nbsp;&amp;nbsp;&amp;nbsp;&amp;nbsp;&amp;nbsp;&amp;nbsp;&amp;nbsp;&amp;nbsp;&amp;nbsp;&amp;nbsp;&lt;span style=&quot;color: #e06c75&quot;&gt;$milog&lt;/span&gt;[&lt;span style=&quot;color: #e06c75&quot;&gt;$jk&lt;/span&gt;].=&lt;span style=&quot;color: #98c379&quot;&gt;&quot;&lt;/span&gt;&lt;span style=&quot;color: #56b6c2&quot;&gt;\n\r&lt;/span&gt;&lt;span style=&quot;color: #98c379&quot;&gt;El&amp;nbsp;cargo&amp;nbsp;de&amp;nbsp;gestion&amp;nbsp;en&amp;nbsp;DOLARES&amp;nbsp;de&amp;nbsp;la&amp;nbsp;agencia&amp;nbsp;es&amp;nbsp;mayor&amp;nbsp;al&amp;nbsp;de&amp;nbsp;la&amp;nbsp;regla,&amp;nbsp;por&amp;nbsp;lo&amp;nbsp;tanto,&amp;nbsp;se&amp;nbsp;anula&amp;nbsp;la&amp;nbsp;aplicacion&amp;nbsp;del&amp;nbsp;fee&amp;nbsp;de&amp;nbsp;la&amp;nbsp;regla&amp;nbsp;y&amp;nbsp;en&amp;nbsp;vez&amp;nbsp;aplicaremos&amp;nbsp;el&amp;nbsp;que&amp;nbsp;esta&amp;nbsp;definido&amp;nbsp;por&amp;nbsp;la&amp;nbsp;agencia,&amp;nbsp;que&amp;nbsp;es&amp;nbsp;mayor.&quot;&lt;/span&gt;;&lt;/div&gt;&lt;div&gt;&amp;nbsp;&amp;nbsp;&amp;nbsp;&amp;nbsp;&amp;nbsp;&amp;nbsp;&amp;nbsp;&amp;nbsp;&amp;nbsp;&amp;nbsp;&amp;nbsp;&amp;nbsp;&lt;/div&gt;&lt;div&gt;&amp;nbsp;&amp;nbsp;&amp;nbsp;&amp;nbsp;&amp;nbsp;&amp;nbsp;&amp;nbsp;&amp;nbsp;}&lt;/div&gt;&lt;br&gt;&lt;div&gt;&amp;nbsp;&amp;nbsp;&amp;nbsp;&amp;nbsp;}&lt;/div&gt;&lt;div&gt;}&amp;nbsp;&amp;nbsp;&amp;nbsp;&lt;/div&gt;&lt;/div&gt;" style="text;html=1;align=left;verticalAlign=middle;resizable=0;points=[];autosize=1;" parent="1" vertex="1">
          <mxGeometry x="-1230" y="1310" width="2060" height="790" as="geometry" />
        </mxCell>
        <mxCell id="Y182MtOqRAXLIOEHWJ8o-1" value="&lt;div style=&quot;color: rgb(171 , 178 , 191) ; background-color: rgb(40 , 44 , 52) ; font-family: &amp;#34;consolas&amp;#34; , &amp;#34;courier new&amp;#34; , monospace ; font-size: 16px ; line-height: 22px&quot;&gt;&lt;div style=&quot;font-family: &amp;#34;consolas&amp;#34; , &amp;#34;courier new&amp;#34; , monospace ; line-height: 22px&quot;&gt;&lt;div&gt;&lt;span style=&quot;color: #c678dd&quot;&gt;if&lt;/span&gt;&amp;nbsp;(&lt;span style=&quot;color: #e06c75&quot;&gt;$def&lt;/span&gt;&lt;span style=&quot;color: #56b6c2&quot;&gt;==&lt;/span&gt;&lt;span style=&quot;color: #98c379&quot;&gt;&quot;si&quot;&lt;/span&gt;)&lt;span style=&quot;color: #7f848e ; font-style: italic&quot;&gt;//usar&amp;nbsp;los&amp;nbsp;valores&amp;nbsp;x&amp;nbsp;default&lt;/span&gt;&lt;/div&gt;&lt;div&gt;{&lt;/div&gt;&lt;div&gt;&lt;span style=&quot;color: #61afef&quot;&gt;db_query4&lt;/span&gt;(&lt;span style=&quot;color: #98c379&quot;&gt;&quot;select&amp;nbsp;*&amp;nbsp;from&amp;nbsp;config&amp;nbsp;where&amp;nbsp;eidconfig=1&quot;&lt;/span&gt;);&lt;/div&gt;&lt;div&gt;&lt;span style=&quot;color: #e06c75&quot;&gt;$cg&lt;/span&gt;&lt;span style=&quot;color: #56b6c2&quot;&gt;=&lt;/span&gt;&lt;span style=&quot;color: #e06c75&quot;&gt;$row4&lt;/span&gt;[&lt;span style=&quot;color: #98c379&quot;&gt;&quot;cargo_gestion&quot;&lt;/span&gt;];&lt;/div&gt;&lt;div&gt;&lt;span style=&quot;color: #7f848e ; font-style: italic&quot;&gt;//mail(&quot;plottrup@aptek.com.ar&quot;,&quot;CARGO&quot;,$cg,&quot;&quot;);&lt;/span&gt;&lt;/div&gt;&lt;div&gt;&lt;span style=&quot;color: #e06c75&quot;&gt;$monto&lt;/span&gt;&lt;span style=&quot;color: #56b6c2&quot;&gt;=&lt;/span&gt;&lt;span style=&quot;color: #98c379&quot;&gt;&quot;&quot;&lt;/span&gt;;&lt;/div&gt;&lt;br&gt;&lt;div&gt;&lt;span style=&quot;color: #e06c75&quot;&gt;$milog&lt;/span&gt;[&lt;span style=&quot;color: #e06c75&quot;&gt;$jk&lt;/span&gt;].=&lt;span style=&quot;color: #98c379&quot;&gt;&quot;&lt;/span&gt;&lt;span style=&quot;color: #56b6c2&quot;&gt;\n\r\n\r&lt;/span&gt;&lt;span style=&quot;color: #98c379&quot;&gt;Se&amp;nbsp;aplica&amp;nbsp;el&amp;nbsp;cargo&amp;nbsp;de&amp;nbsp;gestion&amp;nbsp;estandar&amp;nbsp;de&amp;nbsp;la&amp;nbsp;agencia&amp;nbsp;por&amp;nbsp;pasajero&amp;nbsp;adultos&amp;nbsp;y&amp;nbsp;ninos&quot;&lt;/span&gt;;&lt;/div&gt;&lt;br&gt;&lt;div&gt;&lt;span style=&quot;color: #e06c75&quot;&gt;$especial&lt;/span&gt;&lt;span style=&quot;color: #56b6c2&quot;&gt;=&lt;/span&gt;&lt;span style=&quot;color: #d19a66&quot;&gt;9999999&lt;/span&gt;;&lt;span style=&quot;color: #7f848e ; font-style: italic&quot;&gt;//Cargo&amp;nbsp;de&amp;nbsp;gestion&amp;nbsp;de&amp;nbsp;la&amp;nbsp;agencia&lt;/span&gt;&lt;/div&gt;&lt;br&gt;&lt;div&gt;&lt;span style=&quot;color: #c678dd&quot;&gt;if&lt;/span&gt;&amp;nbsp;(&lt;span style=&quot;color: #e06c75&quot;&gt;$cg&lt;/span&gt;&lt;span style=&quot;color: #56b6c2&quot;&gt;==&lt;/span&gt;&lt;span style=&quot;color: #98c379&quot;&gt;&quot;1&quot;&lt;/span&gt;)&amp;nbsp;&lt;span style=&quot;color: #7f848e ; font-style: italic&quot;&gt;//&amp;nbsp;tiene&amp;nbsp;algo&lt;/span&gt;&lt;/div&gt;&lt;div&gt;{&lt;/div&gt;&lt;div&gt;&amp;nbsp;&amp;nbsp;&amp;nbsp;&amp;nbsp;&lt;span style=&quot;color: #e06c75&quot;&gt;$tipo&lt;/span&gt;&lt;span style=&quot;color: #56b6c2&quot;&gt;=&lt;/span&gt;&lt;span style=&quot;color: #e06c75&quot;&gt;$row4&lt;/span&gt;[&lt;span style=&quot;color: #98c379&quot;&gt;&quot;tipo_cargo_gestion&quot;&lt;/span&gt;];&lt;/div&gt;&lt;div&gt;&amp;nbsp;&amp;nbsp;&amp;nbsp;&amp;nbsp;&lt;span style=&quot;color: #7f848e ; font-style: italic&quot;&gt;//mail(&quot;plottrup@aptek.com.ar&quot;,&quot;TIPO&quot;,$tipo,&quot;&quot;);&lt;/span&gt;&lt;/div&gt;&lt;div&gt;&amp;nbsp;&amp;nbsp;&amp;nbsp;&amp;nbsp;&lt;span style=&quot;color: #c678dd&quot;&gt;if&lt;/span&gt;&amp;nbsp;(&lt;span style=&quot;color: #e06c75&quot;&gt;$tipo&lt;/span&gt;&lt;span style=&quot;color: #56b6c2&quot;&gt;==&lt;/span&gt;&lt;span style=&quot;color: #d19a66&quot;&gt;1&lt;/span&gt;)&lt;/div&gt;&lt;div&gt;&amp;nbsp;&amp;nbsp;&amp;nbsp;&amp;nbsp;{&lt;/div&gt;&lt;div&gt;&amp;nbsp;&amp;nbsp;&amp;nbsp;&amp;nbsp;&amp;nbsp;&amp;nbsp;&amp;nbsp;&amp;nbsp;&lt;span style=&quot;color: #7f848e ; font-style: italic&quot;&gt;//%&lt;/span&gt;&lt;/div&gt;&lt;div&gt;&amp;nbsp;&amp;nbsp;&amp;nbsp;&amp;nbsp;&amp;nbsp;&amp;nbsp;&amp;nbsp;&amp;nbsp;&lt;span style=&quot;color: #7f848e ; font-style: italic&quot;&gt;//echo&amp;nbsp;&quot;&amp;lt;br&amp;gt;C&quot;;&lt;/span&gt;&lt;/div&gt;&lt;div&gt;&amp;nbsp;&amp;nbsp;&amp;nbsp;&amp;nbsp;&amp;nbsp;&amp;nbsp;&amp;nbsp;&amp;nbsp;&lt;span style=&quot;color: #e06c75&quot;&gt;$milog&lt;/span&gt;[&lt;span style=&quot;color: #e06c75&quot;&gt;$jk&lt;/span&gt;].=&lt;span style=&quot;color: #98c379&quot;&gt;&quot;&amp;nbsp;de&amp;nbsp;porcentaje&amp;nbsp;&quot;&lt;/span&gt;.&lt;span style=&quot;color: #e06c75&quot;&gt;$row4&lt;/span&gt;[&lt;span style=&quot;color: #98c379&quot;&gt;&quot;porcentaje_cargo_gestion&quot;&lt;/span&gt;];&lt;/div&gt;&lt;div&gt;&amp;nbsp;&amp;nbsp;&amp;nbsp;&amp;nbsp;&amp;nbsp;&amp;nbsp;&amp;nbsp;&amp;nbsp;&lt;span style=&quot;color: #e06c75&quot;&gt;$monto&lt;/span&gt;&lt;span style=&quot;color: #56b6c2&quot;&gt;=floatval&lt;/span&gt;(&lt;span style=&quot;color: #e06c75&quot;&gt;$guardar_tarifa&lt;/span&gt;)&lt;span style=&quot;color: #56b6c2&quot;&gt;*floatval&lt;/span&gt;(&lt;span style=&quot;color: #e06c75&quot;&gt;$row4&lt;/span&gt;[&lt;span style=&quot;color: #98c379&quot;&gt;&quot;porcentaje_cargo_gestion&quot;&lt;/span&gt;])&lt;span style=&quot;color: #56b6c2&quot;&gt;/&lt;/span&gt;&lt;span style=&quot;color: #d19a66&quot;&gt;100&lt;/span&gt;;&lt;/div&gt;&lt;div&gt;&amp;nbsp;&amp;nbsp;&amp;nbsp;&amp;nbsp;&amp;nbsp;&amp;nbsp;&amp;nbsp;&amp;nbsp;&lt;span style=&quot;color: #e06c75&quot;&gt;$monto2&lt;/span&gt;&lt;span style=&quot;color: #56b6c2&quot;&gt;=floatval&lt;/span&gt;(&lt;span style=&quot;color: #e06c75&quot;&gt;$guardar_tarifa2&lt;/span&gt;)&lt;span style=&quot;color: #56b6c2&quot;&gt;*floatval&lt;/span&gt;(&lt;span style=&quot;color: #e06c75&quot;&gt;$row4&lt;/span&gt;[&lt;span style=&quot;color: #98c379&quot;&gt;&quot;porcentaje_cargo_gestion&quot;&lt;/span&gt;])&lt;span style=&quot;color: #56b6c2&quot;&gt;/&lt;/span&gt;&lt;span style=&quot;color: #d19a66&quot;&gt;100&lt;/span&gt;;&lt;/div&gt;&lt;div&gt;&amp;nbsp;&amp;nbsp;&amp;nbsp;&amp;nbsp;&amp;nbsp;&amp;nbsp;&amp;nbsp;&amp;nbsp;&lt;span style=&quot;color: #7f848e ; font-style: italic&quot;&gt;//Agregado&amp;nbsp;porque&amp;nbsp;es&amp;nbsp;Fabricio//////////////////&lt;/span&gt;&lt;/div&gt;&lt;div&gt;&amp;nbsp;&amp;nbsp;&amp;nbsp;&amp;nbsp;&amp;nbsp;&amp;nbsp;&amp;nbsp;&amp;nbsp;&lt;span style=&quot;color: #7f848e ; font-style: italic&quot;&gt;//&amp;nbsp;$monto=($monto*($_SESSION[&quot;adultos&quot;])+($monto2*$_SESSION[&quot;ninos&quot;]));&lt;/span&gt;&lt;/div&gt;&lt;div&gt;&amp;nbsp;&amp;nbsp;&amp;nbsp;&amp;nbsp;&amp;nbsp;&amp;nbsp;&amp;nbsp;&amp;nbsp;&lt;span style=&quot;color: #e06c75&quot;&gt;$monto&lt;/span&gt;&lt;span style=&quot;color: #56b6c2&quot;&gt;=&lt;/span&gt;(&lt;span style=&quot;color: #e06c75&quot;&gt;$monto&lt;/span&gt;&lt;span style=&quot;color: #56b6c2&quot;&gt;+&lt;/span&gt;&lt;span style=&quot;color: #e06c75&quot;&gt;$monto2&lt;/span&gt;);&lt;/div&gt;&lt;div&gt;&amp;nbsp;&amp;nbsp;&amp;nbsp;&amp;nbsp;&amp;nbsp;&amp;nbsp;&amp;nbsp;&amp;nbsp;&lt;span style=&quot;color: #e06c75&quot;&gt;$monto&lt;/span&gt;&lt;span style=&quot;color: #56b6c2&quot;&gt;=floatval&lt;/span&gt;(&lt;span style=&quot;color: #e06c75&quot;&gt;$monto&lt;/span&gt;);&lt;/div&gt;&lt;div&gt;&amp;nbsp;&amp;nbsp;&amp;nbsp;&amp;nbsp;&amp;nbsp;&amp;nbsp;&amp;nbsp;&amp;nbsp;&lt;span style=&quot;color: #7f848e ; font-style: italic&quot;&gt;//$monto2=number_format($monto2,2);&lt;/span&gt;&lt;/div&gt;&lt;div&gt;&amp;nbsp;&amp;nbsp;&amp;nbsp;&amp;nbsp;&amp;nbsp;&amp;nbsp;&amp;nbsp;&amp;nbsp;&lt;span style=&quot;color: #7f848e ; font-style: italic&quot;&gt;//echo&amp;nbsp;&quot;&amp;lt;br&amp;gt;%&amp;nbsp;CG=&quot;.$row3[&quot;porcentaje_cargo_gestion&quot;];&lt;/span&gt;&lt;/div&gt;&lt;div&gt;&amp;nbsp;&amp;nbsp;&amp;nbsp;&amp;nbsp;&amp;nbsp;&amp;nbsp;&amp;nbsp;&amp;nbsp;&lt;span style=&quot;color: #7f848e ; font-style: italic&quot;&gt;//echo&amp;nbsp;&quot;&amp;lt;br&amp;gt;MONTO=&quot;.$guardar_tarifa;&lt;/span&gt;&lt;/div&gt;&lt;div&gt;&amp;nbsp;&amp;nbsp;&amp;nbsp;&amp;nbsp;&amp;nbsp;&amp;nbsp;&amp;nbsp;&amp;nbsp;&lt;span style=&quot;color: #7f848e ; font-style: italic&quot;&gt;//echo&amp;nbsp;&quot;&amp;lt;br&amp;gt;MONTO2=&quot;.$guardar_tarifa2;&lt;/span&gt;&lt;/div&gt;&lt;div&gt;&amp;nbsp;&amp;nbsp;&amp;nbsp;&amp;nbsp;&amp;nbsp;&amp;nbsp;&amp;nbsp;&amp;nbsp;&lt;span style=&quot;color: #7f848e ; font-style: italic&quot;&gt;//echo&amp;nbsp;&quot;&amp;lt;br&amp;gt;MONTOxPASAJEROS=&quot;.$monto;&lt;/span&gt;&lt;/div&gt;&lt;div&gt;&amp;nbsp;&amp;nbsp;&amp;nbsp;&amp;nbsp;&amp;nbsp;&amp;nbsp;&amp;nbsp;&amp;nbsp;&lt;span style=&quot;color: #7f848e ; font-style: italic&quot;&gt;///////////////////////////////////////////////&lt;/span&gt;&lt;/div&gt;&lt;div&gt;&amp;nbsp;&amp;nbsp;&amp;nbsp;&amp;nbsp;}&lt;/div&gt;&lt;div&gt;&amp;nbsp;&amp;nbsp;&amp;nbsp;&amp;nbsp;&lt;span style=&quot;color: #c678dd&quot;&gt;if&lt;/span&gt;&amp;nbsp;(&lt;span style=&quot;color: #e06c75&quot;&gt;$tipo&lt;/span&gt;&lt;span style=&quot;color: #56b6c2&quot;&gt;==&lt;/span&gt;&lt;span style=&quot;color: #d19a66&quot;&gt;0&lt;/span&gt;)&lt;/div&gt;&lt;div&gt;&amp;nbsp;&amp;nbsp;&amp;nbsp;&amp;nbsp;{&lt;/div&gt;&lt;div&gt;&amp;nbsp;&amp;nbsp;&amp;nbsp;&amp;nbsp;&amp;nbsp;&amp;nbsp;&amp;nbsp;&amp;nbsp;&lt;span style=&quot;color: #7f848e ; font-style: italic&quot;&gt;//echo&amp;nbsp;&quot;&amp;lt;br&amp;gt;D&quot;;&lt;/span&gt;&lt;/div&gt;&lt;div&gt;&amp;nbsp;&amp;nbsp;&amp;nbsp;&amp;nbsp;&amp;nbsp;&amp;nbsp;&amp;nbsp;&amp;nbsp;&lt;span style=&quot;color: #e06c75&quot;&gt;$milog&lt;/span&gt;[&lt;span style=&quot;color: #e06c75&quot;&gt;$jk&lt;/span&gt;].=&lt;span style=&quot;color: #98c379&quot;&gt;&quot;&amp;nbsp;de&amp;nbsp;valor&amp;nbsp;fijo&amp;nbsp;&quot;&lt;/span&gt;;&lt;/div&gt;&lt;br&gt;&lt;div&gt;&amp;nbsp;&amp;nbsp;&amp;nbsp;&amp;nbsp;&amp;nbsp;&amp;nbsp;&amp;nbsp;&amp;nbsp;&lt;span style=&quot;color: #c678dd&quot;&gt;if&lt;/span&gt;&amp;nbsp;(&lt;span style=&quot;color: #e06c75&quot;&gt;$coin&lt;/span&gt;&lt;span style=&quot;color: #56b6c2&quot;&gt;==&lt;/span&gt;&lt;span style=&quot;color: #98c379&quot;&gt;&quot;ARS&quot;&lt;/span&gt;)&lt;/div&gt;&lt;div&gt;&amp;nbsp;&amp;nbsp;&amp;nbsp;&amp;nbsp;&amp;nbsp;&amp;nbsp;&amp;nbsp;&amp;nbsp;{&lt;/div&gt;&lt;div&gt;&amp;nbsp;&amp;nbsp;&amp;nbsp;&amp;nbsp;&amp;nbsp;&amp;nbsp;&amp;nbsp;&amp;nbsp;&amp;nbsp;&amp;nbsp;&amp;nbsp;&amp;nbsp;&lt;span style=&quot;color: #e06c75&quot;&gt;$milog&lt;/span&gt;[&lt;span style=&quot;color: #e06c75&quot;&gt;$jk&lt;/span&gt;].=&lt;span style=&quot;color: #98c379&quot;&gt;&quot;&amp;nbsp;ARS&amp;nbsp;&quot;&lt;/span&gt;.&lt;span style=&quot;color: #e06c75&quot;&gt;$row4&lt;/span&gt;[&lt;span style=&quot;color: #98c379&quot;&gt;&quot;pesos_cargo_gestion&quot;&lt;/span&gt;];&lt;/div&gt;&lt;div&gt;&amp;nbsp;&amp;nbsp;&amp;nbsp;&amp;nbsp;&amp;nbsp;&amp;nbsp;&amp;nbsp;&amp;nbsp;&amp;nbsp;&amp;nbsp;&amp;nbsp;&amp;nbsp;&lt;span style=&quot;color: #e06c75&quot;&gt;$monto&lt;/span&gt;&lt;span style=&quot;color: #56b6c2&quot;&gt;=&lt;/span&gt;&lt;span style=&quot;color: #e06c75&quot;&gt;$row4&lt;/span&gt;[&lt;span style=&quot;color: #98c379&quot;&gt;&quot;pesos_cargo_gestion&quot;&lt;/span&gt;];&lt;/div&gt;&lt;div&gt;&amp;nbsp;&amp;nbsp;&amp;nbsp;&amp;nbsp;&amp;nbsp;&amp;nbsp;&amp;nbsp;&amp;nbsp;}&lt;/div&gt;&lt;div&gt;&amp;nbsp;&amp;nbsp;&amp;nbsp;&amp;nbsp;&amp;nbsp;&amp;nbsp;&amp;nbsp;&amp;nbsp;&lt;span style=&quot;color: #c678dd&quot;&gt;if&lt;/span&gt;&amp;nbsp;(&lt;span style=&quot;color: #e06c75&quot;&gt;$coin&lt;/span&gt;&lt;span style=&quot;color: #56b6c2&quot;&gt;==&lt;/span&gt;&lt;span style=&quot;color: #98c379&quot;&gt;&quot;USD&quot;&lt;/span&gt;)&lt;/div&gt;&lt;div&gt;&amp;nbsp;&amp;nbsp;&amp;nbsp;&amp;nbsp;&amp;nbsp;&amp;nbsp;&amp;nbsp;&amp;nbsp;{&lt;/div&gt;&lt;div&gt;&amp;nbsp;&amp;nbsp;&amp;nbsp;&amp;nbsp;&amp;nbsp;&amp;nbsp;&amp;nbsp;&amp;nbsp;&amp;nbsp;&amp;nbsp;&amp;nbsp;&amp;nbsp;&lt;span style=&quot;color: #e06c75&quot;&gt;$milog&lt;/span&gt;[&lt;span style=&quot;color: #e06c75&quot;&gt;$jk&lt;/span&gt;].=&lt;span style=&quot;color: #98c379&quot;&gt;&quot;&amp;nbsp;USD&amp;nbsp;&quot;&lt;/span&gt;.&lt;span style=&quot;color: #e06c75&quot;&gt;$row4&lt;/span&gt;[&lt;span style=&quot;color: #98c379&quot;&gt;&quot;dolares_cargo_gestion&quot;&lt;/span&gt;];&lt;/div&gt;&lt;div&gt;&amp;nbsp;&amp;nbsp;&amp;nbsp;&amp;nbsp;&amp;nbsp;&amp;nbsp;&amp;nbsp;&amp;nbsp;&amp;nbsp;&amp;nbsp;&amp;nbsp;&amp;nbsp;&lt;span style=&quot;color: #e06c75&quot;&gt;$monto&lt;/span&gt;&lt;span style=&quot;color: #56b6c2&quot;&gt;=&lt;/span&gt;&lt;span style=&quot;color: #e06c75&quot;&gt;$row4&lt;/span&gt;[&lt;span style=&quot;color: #98c379&quot;&gt;&quot;dolares_cargo_gestion&quot;&lt;/span&gt;];&lt;/div&gt;&lt;div&gt;&amp;nbsp;&amp;nbsp;&amp;nbsp;&amp;nbsp;&amp;nbsp;&amp;nbsp;&amp;nbsp;&amp;nbsp;}&lt;/div&gt;&lt;div&gt;&amp;nbsp;&amp;nbsp;&amp;nbsp;&amp;nbsp;&amp;nbsp;&amp;nbsp;&amp;nbsp;&amp;nbsp;&lt;span style=&quot;color: #7f848e ; font-style: italic&quot;&gt;//Agregado&amp;nbsp;porque&amp;nbsp;es&amp;nbsp;Fabricio//////////////////&lt;/span&gt;&lt;/div&gt;&lt;div&gt;&amp;nbsp;&amp;nbsp;&amp;nbsp;&amp;nbsp;&amp;nbsp;&amp;nbsp;&amp;nbsp;&amp;nbsp;&lt;span style=&quot;color: #e06c75&quot;&gt;$monto&lt;/span&gt;&lt;span style=&quot;color: #56b6c2&quot;&gt;=&lt;/span&gt;&lt;span style=&quot;color: #e06c75&quot;&gt;$monto&lt;/span&gt;&lt;span style=&quot;color: #56b6c2&quot;&gt;*&lt;/span&gt;(&lt;span style=&quot;color: #e06c75&quot;&gt;$_SESSION&lt;/span&gt;[&lt;span style=&quot;color: #98c379&quot;&gt;&quot;adultos&quot;&lt;/span&gt;]&lt;span style=&quot;color: #56b6c2&quot;&gt;+&lt;/span&gt;&lt;span style=&quot;color: #e06c75&quot;&gt;$_SESSION&lt;/span&gt;[&lt;span style=&quot;color: #98c379&quot;&gt;&quot;ninos&quot;&lt;/span&gt;]);&lt;/div&gt;&lt;div&gt;&amp;nbsp;&amp;nbsp;&amp;nbsp;&amp;nbsp;&amp;nbsp;&amp;nbsp;&amp;nbsp;&amp;nbsp;&lt;span style=&quot;color: #e06c75&quot;&gt;$monto&lt;/span&gt;&lt;span style=&quot;color: #56b6c2&quot;&gt;=floatval&lt;/span&gt;(&lt;span style=&quot;color: #e06c75&quot;&gt;$monto&lt;/span&gt;);&lt;/div&gt;&lt;div&gt;&amp;nbsp;&amp;nbsp;&amp;nbsp;&amp;nbsp;&amp;nbsp;&amp;nbsp;&amp;nbsp;&amp;nbsp;&lt;span style=&quot;color: #7f848e ; font-style: italic&quot;&gt;//echo&amp;nbsp;&quot;&amp;lt;br&amp;gt;%&amp;nbsp;CG=&quot;.$row3[&quot;porcentaje_cargo_gestion&quot;];&lt;/span&gt;&lt;/div&gt;&lt;div&gt;&amp;nbsp;&amp;nbsp;&amp;nbsp;&amp;nbsp;&amp;nbsp;&amp;nbsp;&amp;nbsp;&amp;nbsp;&lt;span style=&quot;color: #7f848e ; font-style: italic&quot;&gt;//echo&amp;nbsp;&quot;&amp;lt;br&amp;gt;MONTO=&quot;.$guardar_tarifa;&lt;/span&gt;&lt;/div&gt;&lt;div&gt;&amp;nbsp;&amp;nbsp;&amp;nbsp;&amp;nbsp;&amp;nbsp;&amp;nbsp;&amp;nbsp;&amp;nbsp;&lt;span style=&quot;color: #7f848e ; font-style: italic&quot;&gt;//echo&amp;nbsp;&quot;&amp;lt;br&amp;gt;MONTO2=&quot;.$guardar_tarifa2;&lt;/span&gt;&lt;/div&gt;&lt;div&gt;&amp;nbsp;&amp;nbsp;&amp;nbsp;&amp;nbsp;&amp;nbsp;&amp;nbsp;&amp;nbsp;&amp;nbsp;&lt;span style=&quot;color: #7f848e ; font-style: italic&quot;&gt;//echo&amp;nbsp;&quot;&amp;lt;br&amp;gt;MONTOxPASAJEROS=&quot;.$monto;&lt;/span&gt;&lt;/div&gt;&lt;div&gt;&amp;nbsp;&amp;nbsp;&amp;nbsp;&amp;nbsp;&amp;nbsp;&amp;nbsp;&amp;nbsp;&amp;nbsp;&lt;span style=&quot;color: #7f848e ; font-style: italic&quot;&gt;///////////////////////////////////////////////&lt;/span&gt;&lt;/div&gt;&lt;div&gt;&amp;nbsp;&amp;nbsp;&amp;nbsp;&amp;nbsp;&amp;nbsp;&amp;nbsp;&amp;nbsp;&amp;nbsp;&lt;/div&gt;&lt;div&gt;&amp;nbsp;&amp;nbsp;&amp;nbsp;&amp;nbsp;}&lt;/div&gt;&lt;div&gt;}&lt;/div&gt;&lt;div&gt;}&amp;nbsp;&amp;nbsp;&lt;/div&gt;&lt;/div&gt;&lt;/div&gt;" style="text;html=1;align=left;verticalAlign=middle;resizable=0;points=[];autosize=1;" vertex="1" parent="1">
          <mxGeometry x="-1080" y="2240" width="940" height="1290" as="geometry" />
        </mxCell>
        <mxCell id="nCxaHRIKBPf5B0j2PniW-3" value="IF EXTRA" style="text;html=1;align=center;verticalAlign=middle;resizable=0;points=[];autosize=1;labelBackgroundColor=#FFFF66;fontSize=25;" parent="1" vertex="1">
          <mxGeometry x="-1240" y="1220" width="130" height="30" as="geometry" />
        </mxCell>
        <mxCell id="Y182MtOqRAXLIOEHWJ8o-3" value="Text" style="text;html=1;align=center;verticalAlign=middle;resizable=0;points=[];autosize=1;" vertex="1" parent="1">
          <mxGeometry x="279" y="3172" width="40" height="20" as="geometry" />
        </mxCell>
      </root>
    </mxGraphModel>
  </diagram>
</mxfile>
